<?xml version="1.0" encoding="UTF-8" standalone="no"?>
<!-- Created with Inkscape (http://www.inkscape.org/) -->

<svg
  xmlns:dc="http://purl.org/dc/elements/1.1/"
  xmlns:cc="http://creativecommons.org/ns#"
  xmlns:rdf="http://www.w3.org/1999/02/22-rdf-syntax-ns#"
  xmlns:svg="http://www.w3.org/2000/svg"
  xmlns="http://www.w3.org/2000/svg"
  xmlns:sodipodi="http://sodipodi.sourceforge.net/DTD/sodipodi-0.dtd"
  xmlns:inkscape="http://www.inkscape.org/namespaces/inkscape"
  sodipodi:docname=" NO-perspective.svg"
  inkscape:version="0.92.4 (unknown)"
  id="svg4397"
  version="1.1"
  viewBox="0 0 210 297"
  height="297mm"
  width="210mm">
 <defs
   id="defs4391" />
 <sodipodi:namedview
   id="base"
   pagecolor="#ffffff"
   bordercolor="#666666"
   borderopacity="1.0"
   inkscape:pageopacity="0.0"
   inkscape:pageshadow="2"
   inkscape:zoom="8.9221218"
   inkscape:cx="301.53243"
   inkscape:cy="831.70953"
   inkscape:document-units="mm"
   inkscape:current-layer="gItDependsBallotPaper"
   showgrid="false"
   inkscape:window-width="1920"
   inkscape:window-height="1148"
   inkscape:window-x="1280"
   inkscape:window-y="0"
   inkscape:window-maximized="1"
   inkscape:object-nodes="false" />
 <metadata
   id="metadata4394">
  <rdf:RDF>
   <cc:Work
     rdf:about="">
    <dc:format>image/svg+xml</dc:format>
    <dc:type
      rdf:resource="http://purl.org/dc/dcmitype/StillImage" />
    <dc:title></dc:title>
   </cc:Work>
  </rdf:RDF>
 </metadata>
 <g
   inkscape:label="Calque 1"
   inkscape:groupmode="layer"
   id="layer1">
  <g
    transform="matrix(0.13229167,0,0,0.13229167,39.74069,16.528379)"
    id="gItDependsBallotPaper">
   <g
     id="gPileOfPapers-Yes">
    <g
      id="gPileOfPapers">
     <path
       inkscape:connector-curvature="0"
       id="path10352"
       d="m 320.07782,398.23951 22.89041,37.24542 -43.45298,12.02717 -19.39866,-44.22894 z"
       style="fill:#ffffff;fill-opacity:1;stroke:#000000;stroke-width:1px;stroke-linecap:butt;stroke-linejoin:miter;stroke-opacity:1" />
     <g
       aria-label="NO"
       style="font-style:normal;font-weight:normal;font-size:31.99999809px;line-height:125%;font-family:Sans;letter-spacing:0px;word-spacing:0px;fill:#000000;fill-opacity:1;stroke:none;stroke-width:1.99999988px;stroke-linecap:butt;stroke-linejoin:miter;stroke-opacity:1"
       id="text822"
       transform="matrix(0.43249668,0,0,0.43249668,175.70698,238.84269)">
      <path
        id="path826"
        style="font-style:normal;font-variant:normal;font-weight:500;font-stretch:normal;font-size:24px;font-family:Ubuntu;-inkscape-font-specification:'Ubuntu Medium';stroke-width:1.99999988px"
        d="m 287.51347,418.0514 c 1.8374,-1.10425 3.78167,-2.30638 5.83096,-3.6027 2.07847,-1.28574 4.13356,-2.5847 6.16481,-3.89595 2.05949,-1.29877 4.00605,-2.58406 5.83994,-3.85635 1.87244,-1.24047 3.51536,-2.39008 4.9306,-3.45255 0,0 -27.59104,3.88389 -27.59104,3.88389 0,0 -1.74422,-3.94907 -1.74422,-3.94907 0,0 38.25019,-4.82769 38.25019,-4.82769 0,0 1.69751,2.78289 1.69751,2.78289 -1.11862,0.94084 -2.50719,1.98995 -4.16801,3.15191 -1.63177,1.17282 -3.3651,2.3764 -5.20054,3.61181 -1.83389,1.2723 -3.71617,2.52693 -5.64636,3.76295 -1.89077,1.2661 -3.68883,2.42263 -5.39209,3.46544 0,0 26.10935,-4.64376 26.10935,-4.64376 0,0 2.06009,3.3773 2.06009,3.3773 0,0 -39.6361,7.59955 -39.6361,7.59955 0,0 -1.50509,-3.40767 -1.50509,-3.40767"
        inkscape:connector-curvature="0" />
      <path
        id="path828"
        style="font-style:normal;font-variant:normal;font-weight:500;font-stretch:normal;font-size:24px;font-family:Ubuntu;-inkscape-font-specification:'Ubuntu Medium';stroke-width:1.99999988px"
        d="m 312.97783,425.57722 c -2.20905,0.48801 -4.15422,1.0729 -5.83705,1.75775 -1.64605,0.68026 -2.98284,1.43007 -4.01085,2.25043 -0.98205,0.83736 -1.64083,1.73076 -1.97594,2.67938 -0.33722,0.95285 -0.27621,1.92972 0.18461,2.92743 0.45122,0.97692 1.21357,1.77219 2.28864,2.38263 1.07719,0.6062 2.37507,1.01374 3.89398,1.22194 1.57092,0.21312 3.33824,0.22171 5.30138,0.0269 2.00483,-0.20923 4.13961,-0.61353 6.40281,-1.20984 2.26321,-0.59631 4.23557,-1.27006 5.9156,-2.01827 1.71769,-0.75457 3.0675,-1.55042 4.04895,-2.38659 1.02897,-0.82227 1.69487,-1.67545 1.99811,-2.56033 0.30113,-0.88066 0.19788,-1.75305 -0.30815,-2.62037 -0.51679,-0.88577 -1.33156,-1.59619 -2.44273,-2.13442 -1.10906,-0.54248 -2.44923,-0.9199 -4.02004,-1.13323 -1.5575,-0.19998 -3.30158,-0.23504 -5.23274,-0.1042 -1.92916,0.12685 -3.99752,0.43278 -6.20658,0.92079 0,0 0,0 0,0 m 8.26392,15.9213 c -3.56107,0.98565 -6.83598,1.58315 -9.82048,1.78397 -2.9691,0.21 -5.59042,0.083 -7.86316,-0.38255 -2.21698,-0.46814 -4.06708,-1.2315 -5.55174,-2.2872 -1.48031,-1.06439 -2.54116,-2.33474 -3.1858,-3.80453 -0.64465,-1.46978 -0.8078,-2.96969 -0.49277,-4.49309 0.32005,-1.49344 1.13303,-2.91441 2.43739,-4.25982 1.34619,-1.32011 3.19735,-2.53184 5.55402,-3.63628 2.35099,-1.09306 5.23542,-1.98924 8.65757,-2.69705 3.42214,-0.70781 6.56229,-1.07026 9.42465,-1.09575 2.90652,-0.0448 5.49618,0.16545 7.76962,0.6296 2.29088,0.46927 4.21848,1.15211 5.78102,2.05204 1.56688,0.89124 2.72677,1.9435 3.47643,3.16327 0.74965,1.21978 1.00718,2.49096 0.76931,3.82005 -0.24221,1.33779 -1.03264,2.65918 -2.37282,3.96727 -1.33585,1.33943 -3.21859,2.63431 -5.64755,3.88334 -2.39467,1.24936 -5.37463,2.37108 -8.93569,3.35673 0,0 0,0 0,0"
        inkscape:connector-curvature="0" />
     </g>
    </g>
   </g>
   <g
     id="gItDepensPaper">
    <path
      inkscape:connector-curvature="0"
      id="rect10450"
      d="m 316.00409,487.6673 h 74.87881 v 45.78082 h -74.87881 z"
      style="fill:#ffffff;fill-opacity:1;fill-rule:nonzero;stroke:#000000;stroke-width:1;stroke-linecap:round;stroke-linejoin:round;stroke-miterlimit:4;stroke-dashoffset:0;stroke-opacity:1" />
    <text
      xml:space="preserve"
      style="font-style:normal;font-weight:normal;font-size:31.99999809px;line-height:125%;font-family:Sans;letter-spacing:0px;word-spacing:0px;fill:#000000;fill-opacity:1;stroke:none;stroke-width:1.99999988px;stroke-linecap:butt;stroke-linejoin:miter;stroke-opacity:1"
      x="334.84067"
      y="518.88568"
      id="text4586"><tspan
       sodipodi:role="line"
       id="tspan4584"
       x="334.84067"
       y="518.88568"
       style="font-style:normal;font-variant:normal;font-weight:500;font-stretch:normal;font-size:24px;font-family:Ubuntu;-inkscape-font-specification:'Ubuntu Medium';stroke-width:1.99999988px">NO</tspan></text>
   </g>
  </g>
 </g>
</svg>
