<?xml version="1.0" encoding="UTF-8" standalone="no"?>
<!-- Created with Inkscape (http://www.inkscape.org/) -->

<svg
  xmlns:dc="http://purl.org/dc/elements/1.1/"
  xmlns:cc="http://creativecommons.org/ns#"
  xmlns:rdf="http://www.w3.org/1999/02/22-rdf-syntax-ns#"
  xmlns:svg="http://www.w3.org/2000/svg"
  xmlns="http://www.w3.org/2000/svg"
  xmlns:sodipodi="http://sodipodi.sourceforge.net/DTD/sodipodi-0.dtd"
  xmlns:inkscape="http://www.inkscape.org/namespaces/inkscape"
  width="210mm"
  height="297mm"
  viewBox="0 0 210 297"
  version="1.1"
  id="svg4397"
  inkscape:version="0.92.4 (unknown)"
  sodipodi:docname="SI-perspective.svg">
 <defs
   id="defs4391" />
 <sodipodi:namedview
   id="base"
   pagecolor="#ffffff"
   bordercolor="#666666"
   borderopacity="1.0"
   inkscape:pageopacity="0.0"
   inkscape:pageshadow="2"
   inkscape:zoom="8.9221218"
   inkscape:cx="323.33218"
   inkscape:cy="831.70953"
   inkscape:document-units="mm"
   inkscape:current-layer="gPileOfPapers"
   showgrid="false"
   inkscape:window-width="1920"
   inkscape:window-height="1148"
   inkscape:window-x="1280"
   inkscape:window-y="0"
   inkscape:window-maximized="1"
   inkscape:object-nodes="false" />
 <metadata
   id="metadata4394">
  <rdf:RDF>
   <cc:Work
     rdf:about="">
    <dc:format>image/svg+xml</dc:format>
    <dc:type
      rdf:resource="http://purl.org/dc/dcmitype/StillImage" />
    <dc:title></dc:title>
   </cc:Work>
  </rdf:RDF>
 </metadata>
 <g
   inkscape:label="Calque 1"
   inkscape:groupmode="layer"
   id="layer1">
  <g
    transform="matrix(0.13229167,0,0,0.13229167,39.74069,16.528379)"
    id="gItDependsBallotPaper">
   <g
     id="gPileOfPapers-Yes">
    <g
      id="gPileOfPapers">
     <path
       inkscape:connector-curvature="0"
       id="path10352"
       d="m 320.07782,398.23951 22.89041,37.24542 -43.45298,12.02717 -19.39866,-44.22894 z"
       style="fill:#ffffff;fill-opacity:1;stroke:#000000;stroke-width:1px;stroke-linecap:butt;stroke-linejoin:miter;stroke-opacity:1" />
     <g
       aria-label="SI"
       style="font-style:normal;font-weight:normal;font-size:31.99999809px;line-height:125%;font-family:Sans;letter-spacing:0px;word-spacing:0px;fill:#000000;fill-opacity:1;stroke:none;stroke-width:1.99999988px;stroke-linecap:butt;stroke-linejoin:miter;stroke-opacity:1"
       id="text4605"
       transform="matrix(0.38563579,0,0,0.25565983,191.06367,312.74113)">
      <path
        id="path4609"
        style="font-style:normal;font-variant:normal;font-weight:500;font-stretch:normal;font-size:24px;font-family:Ubuntu;-inkscape-font-specification:'Ubuntu Medium';stroke-width:1.99999988px"
        d="m 292.26502,415.81268 c 1.25788,2.72592 2.61212,4.626 4.06591,5.69384 1.45805,1.05933 2.9944,1.42226 4.60587,1.09518 0.95921,-0.19469 1.67946,-0.57674 2.15986,-1.14437 0.49836,-0.52647 0.8232,-1.22921 0.97406,-2.10731 0.20658,-0.84353 0.26745,-1.84591 0.18238,-3.00671 -0.0492,-1.16362 -0.19717,-2.47249 -0.44422,-3.926 -0.21205,-1.45457 -0.36988,-2.87155 -0.47368,-4.25056 -0.0499,-1.3407 0.096,-2.56207 0.43756,-3.66348 0.35779,-1.05684 0.96808,-1.96153 1.83114,-2.71462 0.88011,-0.7101 2.14843,-1.17031 3.8071,-1.38494 3.46478,-0.44835 6.85164,0.35092 10.17599,2.36695 3.38227,1.96916 6.27137,4.87448 8.65159,8.74739 1.38138,2.24767 2.31607,4.2935 2.80068,6.14422 0.53988,1.8862 0.7853,3.41 0.73723,4.56943 0,0 -7.14334,-0.77193 -7.14334,-0.77193 0.0322,-1.37525 -0.1848,-2.83208 -0.65001,-4.37261 -0.4469,-1.50004 -1.11767,-3.01272 -2.01052,-4.54161 -1.05896,-1.81334 -2.28498,-3.16863 -3.67531,-4.07131 -1.3661,-0.87408 -2.75939,-1.20067 -4.18251,-0.97451 -0.86136,0.13689 -1.51912,0.42031 -1.97396,0.85161 -0.39807,0.46378 -0.67029,1.04908 -0.81693,1.75646 -0.12791,0.74698 -0.16944,1.58286 -0.12468,2.50782 0.0632,0.96515 0.18366,2.00445 0.36128,3.11806 0.28773,1.96054 0.44221,3.72916 0.46416,5.30441 0.0758,1.61349 -0.13458,3.02266 -0.63114,4.22728 -0.44235,1.24223 -1.20897,2.28722 -2.29904,3.13331 -1.05407,0.84302 -2.53656,1.48621 -4.44535,1.92528 -3.66177,0.84231 -7.12167,0.14652 -10.36411,-2.11856 -3.1651,-2.27372 -5.89276,-6.05371 -8.19807,-11.3098 -0.77443,-1.76572 -1.37322,-3.40611 -1.79731,-4.91923 -0.44466,-1.46387 -0.77127,-2.7906 -0.98007,-3.97976 -0.19201,-1.14564 -0.32181,-2.1459 -0.38915,-3.0013 -0.0314,-0.8583 -0.0279,-1.54716 0.0111,-2.06742 0,0 6.72291,1.4849 6.72291,1.4849 -0.0507,1.14852 0.0729,2.68058 0.36961,4.59873 0.29261,1.92639 1.03856,4.1955 2.24095,6.80116 0,0 0,0 0,0"
        inkscape:connector-curvature="0" />
      <path
        id="path4611"
        style="font-style:normal;font-variant:normal;font-weight:500;font-stretch:normal;font-size:24px;font-family:Ubuntu;-inkscape-font-specification:'Ubuntu Medium';stroke-width:1.99999988px"
        d="m 338.00485,429.18809 c 0,0 4.00309,6.56262 4.00309,6.56262 0,0 -41.59242,11.51219 -41.59242,11.51219 0,0 -3.41662,-7.73556 -3.41662,-7.73556 0,0 41.00595,-10.33925 41.00595,-10.33925"
        inkscape:connector-curvature="0" />
     </g>
    </g>
   </g>
   <g
     id="gItDepensPaper">
    <path
      inkscape:connector-curvature="0"
      id="rect10450"
      d="m 316.00409,487.6673 h 74.87881 v 45.78082 h -74.87881 z"
      style="fill:#ffffff;fill-opacity:1;fill-rule:nonzero;stroke:#000000;stroke-width:1;stroke-linecap:round;stroke-linejoin:round;stroke-miterlimit:4;stroke-dashoffset:0;stroke-opacity:1" />
    <text
      xml:space="preserve"
      style="font-style:normal;font-weight:normal;font-size:31.99999809px;line-height:125%;font-family:Sans;letter-spacing:0px;word-spacing:0px;fill:#000000;fill-opacity:1;stroke:none;stroke-width:1.99999988px;stroke-linecap:butt;stroke-linejoin:miter;stroke-opacity:1"
      x="344.10675"
      y="518.88568"
      id="text4586"><tspan
       sodipodi:role="line"
       id="tspan4584"
       x="344.10675"
       y="518.88568"
       style="font-style:normal;font-variant:normal;font-weight:500;font-stretch:normal;font-size:24px;font-family:Ubuntu;-inkscape-font-specification:'Ubuntu Medium';stroke-width:1.99999988px">SI</tspan></text>
   </g>
  </g>
 </g>
</svg>
