<?xml version="1.0" encoding="UTF-8" standalone="no"?>
<!-- Created with Inkscape (http://www.inkscape.org/) -->

<svg
  xmlns:dc="http://purl.org/dc/elements/1.1/"
  xmlns:cc="http://creativecommons.org/ns#"
  xmlns:rdf="http://www.w3.org/1999/02/22-rdf-syntax-ns#"
  xmlns:svg="http://www.w3.org/2000/svg"
  xmlns="http://www.w3.org/2000/svg"
  xmlns:xlink="http://www.w3.org/1999/xlink"
  xmlns:sodipodi="http://sodipodi.sourceforge.net/DTD/sodipodi-0.dtd"
  xmlns:inkscape="http://www.inkscape.org/namespaces/inkscape"
  width="210mm"
  height="297mm"
  viewBox="0 0 210 297"
  version="1.1"
  id="svg4397"
  inkscape:version="0.92.4 (unknown)"
  sodipodi:docname="Yes-No-ar-WithItDepends2.svg">
 <defs
   id="defs4391" />
 <sodipodi:namedview
   id="base"
   pagecolor="#ffffff"
   bordercolor="#666666"
   borderopacity="1.0"
   inkscape:pageopacity="0.0"
   inkscape:pageshadow="2"
   inkscape:zoom="11.313709"
   inkscape:cx="328.90563"
   inkscape:cy="829.94076"
   inkscape:document-units="mm"
   inkscape:current-layer="gItDepensPaper"
   showgrid="false"
   inkscape:window-width="1920"
   inkscape:window-height="1148"
   inkscape:window-x="1280"
   inkscape:window-y="0"
   inkscape:window-maximized="1"
   inkscape:object-nodes="false" />
 <metadata
   id="metadata4394">
  <rdf:RDF>
   <cc:Work
     rdf:about="">
    <dc:format>image/svg+xml</dc:format>
    <dc:type
      rdf:resource="http://purl.org/dc/dcmitype/StillImage" />
    <dc:title />
   </cc:Work>
  </rdf:RDF>
 </metadata>
 <g
   inkscape:label="Calque 1"
   inkscape:groupmode="layer"
   id="layer1">
  <g
    transform="matrix(0.13229167,0,0,0.13229167,39.74069,16.528379)"
    id="gItDependsBallotPaper">
   <g
     id="gPileOfPapers-Yes">
    <g
      id="gPileOfPapers">
     <path
       inkscape:connector-curvature="0"
       id="path10344"
       d="m 335.20877,447.31811 3.49176,4.84966 -38.40934,23.66636 -32.20177,-37.24542 8.14744,-3.49175"
       style="fill:#ffffff;fill-opacity:1;stroke:#000000;stroke-width:1px;stroke-linecap:butt;stroke-linejoin:miter;stroke-opacity:1" />
     <path
       inkscape:connector-curvature="0"
       id="path10346"
       d="m 329.77715,450.80987 3.87973,7.95345 -46.55677,5.04365 -12.41514,-47.7207 4.07371,0.58196"
       style="fill:#ffffff;fill-opacity:1;stroke:#000000;stroke-width:1px;stroke-linecap:butt;stroke-linejoin:miter;stroke-opacity:1" />
     <path
       inkscape:connector-curvature="0"
       id="path10348"
       d="m 336.56668,437.42479 5.23764,5.43163 -38.02137,23.66636 -31.8138,-37.24542 9.11737,-4.26771"
       style="fill:#ffffff;fill-opacity:1;stroke:#000000;stroke-width:1px;stroke-linecap:butt;stroke-linejoin:miter;stroke-opacity:1" />
     <path
       inkscape:connector-curvature="0"
       id="path10350"
       d="m 330.16512,439.55865 4.26771,10.66926 -45.00489,5.43162 -12.80311,-48.10867 5.43163,0.38798"
       style="fill:#ffffff;fill-opacity:1;stroke:#000000;stroke-width:1px;stroke-linecap:butt;stroke-linejoin:miter;stroke-opacity:1" />
     <path
       inkscape:connector-curvature="0"
       id="path10352"
       d="m 320.07782,398.23951 22.89041,37.24542 -43.45298,12.02717 -19.39866,-44.22894 z"
       style="fill:#ffffff;fill-opacity:1;stroke:#000000;stroke-width:1px;stroke-linecap:butt;stroke-linejoin:miter;stroke-opacity:1" />
    </g>
    <g
      id="gYes"
      style="font-style:normal;font-weight:normal;font-size:31.99999809px;line-height:125%;font-family:Sans;letter-spacing:0px;word-spacing:0px;fill:#000000;fill-opacity:1;stroke:none;stroke-width:1.99999988px;stroke-linecap:butt;stroke-linejoin:miter;stroke-opacity:1"
      aria-label="نعم"
      transform="matrix(0.38975011,0,0,0.38975011,173.38198,220.81447)">
     <path
       inkscape:connector-curvature="0"
       d="m 384.31458,522.76015 c 0,0 1.31909,2.14631 1.31909,2.14631 0,0 -4.3663,1.20458 -4.3663,1.20458 0,0 -1.29886,-2.18677 -1.29886,-2.18677 0,0 4.34607,-1.16412 4.34607,-1.16412 m -25.88417,8.2898 c -2.04522,-0.31797 -3.47913,-1.32359 -4.30545,-3.00943 0,0 -0.71053,-1.44962 -0.71053,-1.44962 0,0 5.29082,-1.34726 5.29082,-1.34726 0,0 0.2821,0.55215 0.2821,0.55215 0.53198,1.04122 1.33987,1.6819 2.42485,1.91973 1.21009,0.26119 2.83905,0.11721 4.88546,-0.42906 0,0 6.28401,-1.67746 6.28401,-1.67746 0,0 1.5519,2.76514 1.5519,2.76514 0,0 -6.31991,1.74926 -6.31991,1.74926 -3.63079,1.00495 -6.76057,1.31784 -9.38325,0.92655 0,0 0,0 0,0"
       style="font-style:normal;font-variant:normal;font-weight:normal;font-stretch:normal;font-size:24px;font-family:'Droid Sans';-inkscape-font-specification:'Droid Sans';direction:rtl;stroke-width:1.99999988px"
       id="path846" />
     <path
       inkscape:connector-curvature="0"
       d="m 354.91304,517.75936 c -4.52205,-1.27088 -7.3039,-3.01235 -8.36706,-5.1814 0,0 -0.93159,-1.90061 -0.93159,-1.90061 0,0 5.12737,-1.02037 5.12737,-1.02037 0,0 0.77378,1.5145 0.77378,1.5145 0.57497,1.12535 1.41402,1.95577 2.51874,2.48808 0.99388,0.47129 1.96609,0.83412 2.91628,1.08916 1.06664,-1.35197 2.25339,-2.5522 3.56155,-3.60325 0.56238,-0.45783 1.26354,-0.77389 2.10418,-0.94958 0.57912,-0.12104 1.28819,-0.1965 2.12756,-0.22702 1.11849,-0.0566 2.45974,0.32678 4.02647,1.14464 1.35357,0.69097 2.3726,1.61718 3.0547,2.78343 0.6821,1.16625 0.85129,2.28655 0.50518,3.3657 -0.39739,1.26643 -1.0769,2.1113 -2.03581,2.52916 -0.70925,0.32316 -1.35993,0.55825 -1.95171,0.70463 -0.85904,0.21248 -1.74426,0.25873 -2.65495,0.13733 -2.29318,-0.32987 -4.41082,-0.77645 -6.35339,-1.33884 -0.41984,0.46166 -0.86374,1.14739 -1.33294,2.05961 -0.43302,0.82486 -0.34935,1.82772 0.25248,3.00566 0,0 0.77378,1.51449 0.77378,1.51449 0,0 -5.29744,1.36049 -5.29744,1.36049 0,0 -0.93158,-1.9006 -0.93158,-1.9006 -1.06316,-2.16905 -0.35119,-4.70846 2.1144,-7.57521 0,0 0,0 0,0 m 11.94476,-1.77766 c -0.0362,-0.3314 -0.12744,-0.62726 -0.27359,-0.88784 -0.14615,-0.26058 -0.36953,-0.52627 -0.67003,-0.7973 -0.48998,-0.42094 -1.03599,-0.56471 -1.63835,-0.43064 -0.5459,0.1215 -1.42694,0.9043 -2.64899,2.36012 2.36619,0.63633 3.82696,0.88429 4.37644,0.75563 0.60631,-0.14197 0.89127,-0.47552 0.85452,-0.99997 0,0 0,0 0,0"
       style="font-style:normal;font-variant:normal;font-weight:normal;font-stretch:normal;font-size:24px;font-family:'Droid Sans';-inkscape-font-specification:'Droid Sans';direction:rtl;stroke-width:1.99999988px"
       id="path848" />
     <path
       inkscape:connector-curvature="0"
       d="m 344.39027,498.14504 c -0.10943,1.40787 0.0372,2.51717 0.44293,3.32176 0.23491,0.46583 0.60957,0.77563 1.12426,0.92886 1.32768,0.37875 2.52391,0.47363 3.58688,0.28827 0.43984,-0.0767 0.82672,-0.17816 1.16054,-0.30424 1.49733,-0.49689 2.23873,-1.07372 2.22471,-1.7315 -0.001,-0.44649 -0.12897,-0.90473 -0.38277,-1.37528 -0.32552,-0.60355 -0.80824,-1.00417 -1.44771,-1.20271 -1.60794,-0.50523 -3.027,-0.66524 -4.25995,-0.47449 -0.72526,0.1122 -1.54144,0.29511 -2.44887,0.54936 0,0 -2e-5,-3e-5 -2e-5,-3e-5 m 0.32246,7.504 c -0.33693,-0.11351 -0.61324,-0.22661 -0.829,-0.33918 -2.16881,-1.16718 -3.44627,-2.16206 -3.83875,-2.97189 -0.94722,-1.95442 -1.08301,-3.80152 -0.41398,-5.52812 0.24128,-0.60895 -0.53992,-1.21199 -2.33927,-1.81781 -0.59876,-0.20402 -1.60797,-0.20793 -3.02805,-0.0109 0,0 -9.84168,1.36514 -9.84168,1.36514 0,0 -1.49048,-3.3983 -1.49048,-3.3983 0,0 9.77605,-1.23387 9.77605,-1.23387 3.08904,-0.38988 5.86287,-0.0612 8.32883,0.97125 1.33532,0.55171 2.24637,1.29768 2.731,2.24218 0.74609,-0.12939 1.47949,-0.24565 2.20027,-0.34889 2.66688,-0.38197 5.63907,0.0802 8.92939,1.36073 1.57462,0.59596 2.62281,1.35034 3.14165,2.26896 0.40605,0.71893 0.51694,1.55352 0.33087,2.50741 -0.34986,1.93913 -2.0656,3.42112 -5.14427,4.44006 -1.15368,0.38462 -2.02825,0.86161 -2.62416,1.43187 -0.6081,0.55207 -0.63045,1.38109 -0.066,2.48503 0,0 0.60471,1.18278 0.60471,1.18278 0,0 -5.13382,1.03327 -5.13382,1.03327 0,0 -1.02667,-2.09318 -1.02667,-2.09318 -0.92137,-1.8785 -1.00994,-3.06123 -0.26658,-3.54645 0,0 -2e-5,-4e-5 -2e-5,-4e-5"
       style="font-style:normal;font-variant:normal;font-weight:normal;font-stretch:normal;font-size:24px;font-family:'Droid Sans';-inkscape-font-specification:'Droid Sans';direction:rtl;stroke-width:1.99999988px"
       id="path850" />
    </g>
   </g>
   <use
     height="1052.3622"
     width="744.09448"
     transform="rotate(-30,305.52881,437.03682)"
     id="usePileOfPapers-Yes"
     xlink:href="#gPileOfPapers-Yes"
     y="0"
     x="0" />
   <g
     transform="rotate(-15,355.52882,57.249108)"
     id="gPileOfPapers-No">
    <use
      height="1052.3622"
      width="744.09448"
      x="0"
      y="0"
      xlink:href="#gPileOfPapers"
      id="use10447" />
   </g>
   <g
     id="gItDepensPaper"
     transform="rotate(-3.8626353,353.44349,510.55774)">
    <path
      inkscape:connector-curvature="0"
      id="rect10450"
      d="m 316.00409,487.6673 h 74.87881 v 45.78082 h -74.87881 z"
      style="fill:#ffffff;fill-opacity:1;fill-rule:nonzero;stroke:#000000;stroke-width:1;stroke-linecap:round;stroke-linejoin:round;stroke-miterlimit:4;stroke-dashoffset:0;stroke-opacity:1" />
    <g
      transform="translate(-0.5851972,-0.03951136)"
      aria-label="نعم"
      style="font-style:normal;font-weight:normal;font-size:31.99999809px;line-height:125%;font-family:Sans;letter-spacing:0px;word-spacing:0px;fill:#000000;fill-opacity:1;stroke:none;stroke-width:1.99999988px;stroke-linecap:butt;stroke-linejoin:miter;stroke-opacity:1"
      id="text4586-3">
     <path
       d="m 366.7384,501.81555 h 1.75782 v 1.75781 h -1.75782 z m 0.87891,10.71094 q -0.84375,1.00781 -2.68359,1.00781 h -1.05469 v -2.15625 h 0.41015 q 1.16016,0 1.67579,-0.51562 0.57421,-0.57422 0.57421,-1.81641 v -2.54297 h 2.15625 v 2.54297 q 0,2.19141 -1.07812,3.48047 z"
       style="font-style:normal;font-variant:normal;font-weight:normal;font-stretch:normal;font-size:24px;font-family:'Droid Sans';-inkscape-font-specification:'Droid Sans';direction:rtl;stroke-width:1.99999988px"
       id="path839"
       />
     <path
       d="m 358.32434,511.36633 q -2.27344,2.16797 -4.64062,2.16797 h -1.38282 v -2.15625 h 1.125 q 1.25391,0 2.02735,-0.46875 0.6914,-0.42187 1.16015,-0.8789 -1.13672,-0.9961 -1.93359,-2.05079 -0.35156,-0.45703 -0.35156,-0.98437 0,-0.36328 0.15234,-0.84375 0.1875,-0.64453 1.40625,-1.25391 1.04297,-0.52734 2.4375,-0.52734 1.39453,0 2.4375,0.52734 1.21875,0.60938 1.40625,1.25391 0.15234,0.48047 0.15234,0.84375 0,0.52734 -0.35156,0.98437 -0.90234,1.14844 -1.93359,2.05079 0.36328,0.36328 1.16015,0.8789 0.71485,0.46875 2.02735,0.46875 h 1.125 v 2.15625 h -1.38281 q -2.36719,0 -4.64063,-2.16797 z m 0.65625,-4.74609 q -0.35156,-0.082 -0.65625,-0.082 -0.30469,0 -0.65625,0.082 -0.55078,0.14062 -0.55078,0.51562 0,0.33985 1.20703,1.45313 1.20703,-1.11328 1.20703,-1.45313 0,-0.375 -0.55078,-0.51562 z"
       style="font-style:normal;font-variant:normal;font-weight:normal;font-stretch:normal;font-size:24px;font-family:'Droid Sans';-inkscape-font-specification:'Droid Sans';direction:rtl;stroke-width:1.99999988px"
       id="path841"
       />
     <path
       d="m 343.69934,511.56555 q 1.42969,0.49219 2.32031,0.49219 0.51563,0 0.76172,-0.25781 0.6211,-0.66797 0.6211,-1.34766 0,-0.28125 -0.0703,-0.51562 -0.24609,-1.03125 -0.9375,-1.23047 -0.46875,-0.14063 -1.00781,-0.14063 -0.69141,0 -1.00781,0.31641 -0.79688,0.79687 -0.79688,1.59375 0,0.46875 0.11719,1.08984 z m 5.13281,1.35938 q -0.17578,0.16406 -0.32812,0.25781 -1.5586,0.9375 -2.4375,0.9375 -2.1211,0 -3.77344,-0.91406 -0.58594,-0.32813 -1.46484,0.58593 -0.29297,0.30469 -0.29297,1.23047 v 4.27735 h -2.34375 v -4.27735 q 0,-2.02734 1.40625,-3.22265 0.76172,-0.64453 1.8164,-0.64453 -0.0234,-0.49219 -0.0234,-0.96094 0,-1.73438 1.89843,-3.28125 0.90235,-0.73828 1.98047,-0.73828 0.84375,0 1.82813,0.42187 1.99219,0.83203 2.46094,2.92969 0.17578,0.78516 0.64453,1.30078 0.44531,0.51563 1.67578,0.51563 h 0.8789 v 2.15625 h -1.52343 q -2.05078,0 -2.40235,-0.57422 z"
       style="font-style:normal;font-variant:normal;font-weight:normal;font-stretch:normal;font-size:24px;font-family:'Droid Sans';-inkscape-font-specification:'Droid Sans';direction:rtl;stroke-width:1.99999988px"
       id="path843"
       />
    </g>
    <g
      transform="matrix(0.10955366,0,0,0.10955366,313.84646,481.0711)"
      id="gYesCrossing">
     <path
       inkscape:connector-curvature="0"
       style="fill:#b110b7;fill-opacity:1;fill-rule:evenodd;stroke:none"
       d="m 200.26705,299.57756 c -0.0591,-0.24353 0.50005,-0.624 1.60261,-1.17764 1.10255,-0.55365 2.7438,-1.29153 4.88026,-2.26834 2.13645,-0.97681 4.76312,-2.20854 7.94181,-3.56092 3.17869,-1.35239 6.90517,-2.84221 11.41671,-3.89677 14.97693,-3.47052 35.62043,-7.49169 60.12534,-10.96255 24.5049,-3.47085 52.87181,-6.3664 83.13759,-8.0411 38.62132,-2.13704 74.37535,-2.00884 103.09503,-0.98342 9.81304,0.34818 18.83758,0.83126 26.88157,1.47887 8.04399,0.64762 15.10741,1.4557 21.02239,2.3245 1.97308,0.287 3.65925,0.77192 5.16169,1.20093 2.25779,0.63486 4.24397,1.24488 5.99764,1.75612 2.2569,0.65348 4.08752,1.15564 5.54975,1.4749 0.65989,0.11632 1.21323,0.2507 1.6792,0.34129 0.46597,0.0906 0.8457,0.14139 1.15748,0.16766 0.62355,0.0525 0.99593,0.0327 1.07925,0.19939 0.0833,0.16665 -0.1533,0.52757 -0.84912,0.86529 -0.34791,0.16886 -0.8101,0.32308 -1.3663,0.42679 -0.55619,0.10372 -1.20852,0.15334 -1.87442,0.1631 -1.61521,0.0719 -3.67479,-0.0578 -6.04681,-0.34828 -1.86634,-0.22701 -3.95132,-0.55665 -6.22261,-0.90058 -1.5658,-0.23408 -3.1546,-0.50851 -4.71517,-0.55279 -5.89842,-0.23871 -12.90622,-0.45514 -20.88176,-0.56203 -7.97555,-0.1069 -16.91967,-0.1003 -26.68405,-0.024 -28.60245,0.22928 -64.10267,0.84184 -102.43163,2.95908 -30.03667,1.65918 -58.19313,4.07528 -82.60313,6.73046 -24.41,2.65519 -45.07828,5.52608 -60.22174,7.63341 -4.07729,0.53597 -7.74471,1.58806 -10.9958,2.52059 -3.25109,0.93254 -6.08105,1.76217 -8.4152,2.32063 -2.33415,0.55847 -4.16874,0.86211 -5.42596,0.95925 -1.25721,0.0971 -1.93553,-2.9e-4 -1.99462,-0.24382 z"
       id="path10857" />
     <path
       inkscape:connector-curvature="0"
       style="fill:#b110b7;fill-opacity:1;fill-rule:evenodd;stroke:none"
       d="m 207.94852,261.71885 c -0.10133,-0.23663 0.37608,-0.72459 1.42521,-1.40455 1.04914,-0.67995 2.67264,-1.54693 4.86305,-2.48834 2.19042,-0.94141 4.95066,-1.9505 8.23056,-2.95082 3.27989,-1.00032 7.08201,-1.98493 11.27197,-3.01759 11.96977,-2.96898 27.64514,-6.15337 46.04474,-8.78788 18.3996,-2.63452 39.52296,-4.7022 62.21679,-5.93274 8.31903,-0.45249 16.85556,-0.79569 25.55493,-1.01082 15.31751,-0.3788 30.15198,-0.33332 44.20196,0.0537 14.04999,0.38699 27.31527,1.1147 39.50614,2.05965 10e-6,0 10e-6,0 10e-6,0 7.52984,0.5832 14.69934,1.13277 21.40333,1.7878 6.70398,0.65504 12.94225,1.41442 18.62391,2.30241 5.9127,0.90331 11.33274,1.89443 16.00247,3.05134 4.66972,1.15691 8.59422,2.46753 11.69279,3.75501 3.09858,1.28748 5.37763,2.53883 6.84603,3.51334 1.4684,0.97452 2.13218,1.66178 1.99471,1.93672 -0.13747,0.27494 -1.06755,0.12733 -2.72788,-0.29774 -1.66033,-0.42507 -4.05501,-1.11622 -7.18257,-1.83866 -3.12757,-0.72245 -6.99404,-1.46302 -11.58089,-2.08519 -4.58686,-0.62217 -9.90023,-1.11439 -15.81176,-1.62646 -5.60252,-0.46276 -11.75163,-0.82533 -18.39698,-1.12029 -6.64535,-0.29496 -13.78736,-0.52127 -21.36618,-0.82682 -10e-6,0 -10e-6,0 -10e-6,0 -12.11081,-0.48456 -25.26464,-0.84869 -39.18432,-0.98838 -13.91968,-0.13969 -28.60511,-0.0542 -43.77355,0.32086 -8.61469,0.21301 -17.06984,0.51076 -25.31398,0.87794 -22.49843,1.00591 -43.4094,2.53614 -61.68047,4.40696 -18.27108,1.87082 -33.90742,4.06723 -45.97782,5.90628 -4.27339,0.66002 -8.07997,1.21421 -11.37163,1.76427 -3.29166,0.55006 -6.07121,1.08913 -8.32849,1.56067 -2.25728,0.47153 -3.99472,0.8686 -5.20024,1.08107 -1.20552,0.21248 -1.8805,0.23492 -1.98183,-0.002 z"
       id="path10865" />
    </g>
    <g
      aria-label="حسب"
      style="font-style:normal;font-weight:normal;font-size:10.58333302px;line-height:125%;font-family:Sans;letter-spacing:0px;word-spacing:0px;fill:#000000;fill-opacity:1;stroke:none;stroke-width:0.26458332px;stroke-linecap:butt;stroke-linejoin:miter;stroke-opacity:1"
      id="gItDependsWriting"
      transform="matrix(5.7615183,-0.09024008,-0.09024008,7.0919588,-188.72568,-69.249033)">
     <path
       d="m 100.09896,80.59697 -0.081,0.230822 q -0.02239,0.06373 -0.156748,0.06373 -0.208429,-0.01033 -0.349678,-0.0086 -0.141248,0.0017 -0.244601,0.0155 -0.101631,0.01206 -0.180868,0.03617 -0.07751,0.02411 -0.156752,0.05684 l -0.873331,0.337619 q -0.08613,0.02067 -0.191203,0.02067 v -0.37207 q 0.08785,0 0.130913,0 0.04306,-0.0017 0.07235,-0.0069 0.332452,-0.07235 0.54088,-0.144694 0.210151,-0.07235 0.318672,-0.134358 -0.01723,-0.0017 -0.04995,-0.0086 -0.03101,-0.0086 -0.07063,-0.01895 -0.03962,-0.01206 -0.08613,-0.02412 -0.04479,-0.01378 -0.08785,-0.02756 -0.0534,-0.01378 -0.110243,-0.031 -0.05684,-0.01895 -0.117133,-0.0379 -0.02412,0 -0.06546,0.0155 -0.03962,0.0155 -0.09646,0.03617 -0.05684,0.01895 -0.130913,0.03445 -0.07407,0.0155 -0.165365,0.0155 -0.04995,0 -0.04995,-0.02928 0,0.0069 0.0034,-0.0034 0.0034,-0.01033 0.0086,-0.03962 0.0689,-0.146417 0.124024,-0.237712 0.05684,-0.09302 0.10852,-0.142971 0.0534,-0.05168 0.108521,-0.0689 0.05684,-0.01895 0.124023,-0.01895 0.132636,0 0.254937,0.06718 0.130914,0.07235 0.235989,0.120579 0.106798,0.04823 0.199816,0.08268 0.09474,0.03445 0.184312,0.06029 0.08957,0.02584 0.18948,0.0534 0.101631,0.03445 0.204984,0.05512 0.103352,0.01895 0.192925,0.03101 0.08957,0.01034 0.158474,0.0155 0.06893,0.0034 0.103355,0.0069 z"
       style="font-style:normal;font-variant:normal;font-weight:normal;font-stretch:normal;font-size:3.52777767px;font-family:mry_KacstQurn;-inkscape-font-specification:mry_KacstQurn;fill:#b110b7;fill-opacity:1;stroke-width:0.26458332px"
       id="path1258"
       />
     <path
       d="m 97.863096,81.349724 q -0.04479,0 -0.07235,0 -0.02756,-0.0017 -0.04479,-0.0034 -0.0155,-0.0034 -0.02412,-0.0052 -0.0086,-0.0034 -0.0155,-0.0069 -0.03962,-0.01723 -0.07235,-0.03617 -0.031,-0.01895 -0.06546,-0.05512 -0.03273,-0.03617 -0.07235,-0.09646 -0.03962,-0.06201 -0.09646,-0.163642 -0.0913,0.196371 -0.122301,0.237712 -0.05168,0.06201 -0.125746,0.08613 -0.07235,0.02412 -0.151584,0.01723 -0.07924,-0.0069 -0.158475,-0.04306 -0.07751,-0.03617 -0.139526,-0.09646 -0.02239,0.04306 -0.07235,0.07407 -0.04995,0.03101 -0.118856,0.05168 -0.06718,0.01895 -0.146416,0.02756 -0.07924,0.0086 -0.158475,0.0052 -0.07924,-0.0034 -0.151584,-0.01723 -0.07235,-0.01378 -0.125746,-0.0379 -0.0534,-0.02412 -0.08441,-0.05857 -0.02928,-0.03617 -0.02239,-0.08096 -0.03617,0.03445 -0.0913,0.07062 -0.0534,0.03617 -0.120578,0.06718 -0.06546,0.02928 -0.129191,0.04651 -0.06373,0.01723 -0.16881,0.01723 v -0.37207 q 0.0913,0.01033 0.180868,-0.01206 0.0913,-0.02239 0.179145,-0.06546 0.08957,-0.04479 0.177422,-0.103353 0.08957,-0.05857 0.179145,-0.120578 0.0379,-0.0069 0.0379,0.03101 0,0.0155 -0.0086,0.0379 -0.0069,0.02239 -0.01723,0.04651 -0.01033,0.02412 -0.02239,0.04823 -0.01206,0.02239 -0.02067,0.0379 0.124024,0.06546 0.25666,0.08096 0.132636,0.0155 0.242879,-0.0034 0.110243,-0.02067 0.184313,-0.0689 0.07407,-0.04823 0.08096,-0.110243 -0.0017,-0.0069 0.01206,-0.02239 0.0155,-0.0155 0.0379,-0.03273 0.02239,-0.01895 0.04823,-0.03617 0.02756,-0.01722 0.04823,-0.02584 0.02239,-0.0086 0.03617,-0.0034 0.01378,0.0034 0.01034,0.02756 -0.01723,0.05684 -0.02756,0.0913 -0.01033,0.03445 -0.0155,0.05512 -0.0052,0.01895 -0.0069,0.02928 -0.0017,0.0086 -0.0017,0.01378 0.05512,0.03617 0.113688,0.04823 0.05857,0.01034 0.111966,0 0.05512,-0.01034 0.09991,-0.03962 0.04479,-0.02928 0.07407,-0.07579 0.04479,-0.09819 0.08441,-0.16192 0.04134,-0.06373 0.08096,-0.09474 0.04306,0.0034 0.04306,0.02239 0,0.117134 -0.04306,0.201538 0.02756,0.03445 0.05168,0.06029 0.02412,0.02584 0.05168,0.04823 0.02928,0.02067 0.06546,0.03962 0.03617,0.01723 0.08785,0.03445 l 0.137804,0.02239 q 0.134359,0 0.134359,0.186035 -0.0017,0.186035 -0.134359,0.186035 z"
       style="font-style:normal;font-variant:normal;font-weight:normal;font-stretch:normal;font-size:3.52777767px;font-family:mry_KacstQurn;-inkscape-font-specification:mry_KacstQurn;fill:#b110b7;fill-opacity:1;stroke-width:0.26458332px"
       id="path1260"
       />
     <path
       d="m 93.422862,81.833935 c 0.02662,0.123516 -0.07241,0.267329 -0.196482,0.29119 -0.130602,0.02512 -0.294308,-0.109306 -0.253597,-0.160452 0.04071,-0.05115 0.08153,-0.102201 0.110243,-0.137803 0.02871,-0.0356 0.0511,-0.06374 0.06718,-0.08441 0.01723,-0.02067 0.02986,-0.0356 0.0379,-0.04479 0.008,-0.008 0.0155,-0.01321 0.01722,-0.01378 0.0017,-5.73e-4 0.191245,0.02807 0.217536,0.150045 z m 1.885696,-0.484211 c -0.06087,0 -0.113691,-0.0029 -0.158474,-0.0086 -0.04364,-0.0069 -0.08728,-0.01894 -0.130914,-0.03617 -0.04364,-0.01837 -0.08555,-0.04421 -0.125746,-0.07752 -0.03905,-0.0333 -0.06833,-0.06488 -0.08785,-0.09474 -0.01837,-0.02986 -0.03617,-0.06029 -0.0534,-0.0913 -0.01723,-0.03101 -0.03905,-0.04938 -0.06546,-0.05512 -0.11943,0.09531 -0.255511,0.174552 -0.408243,0.237712 -0.152733,0.06316 -0.315226,0.113114 -0.487481,0.149861 -0.171107,0.03789 -0.347955,0.06431 -0.530545,0.07924 -0.18259,0.01608 -0.362883,0.02412 -0.54088,0.02412 -0.236563,0 -0.440398,-0.01435 -0.611505,-0.04306 -0.171106,-0.02756 -0.312355,-0.07005 -0.423746,-0.127469 -0.111391,-0.05742 -0.194074,-0.129767 -0.248047,-0.217041 -0.05283,-0.08728 -0.07924,-0.190055 -0.07924,-0.308336 0,-0.02871 0.0052,-0.06373 0.0155,-0.105075 0.01149,-0.04134 0.02642,-0.0844 0.04479,-0.129191 0.01837,-0.04479 0.03904,-0.089 0.06201,-0.132637 0.02297,-0.04479 0.04593,-0.08498 0.0689,-0.120578 0.02411,-0.0356 0.04708,-0.06431 0.0689,-0.08613 0.02297,-0.02182 0.04249,-0.03273 0.05857,-0.03273 0.0092,0.02067 0.01263,0.03732 0.01034,0.04995 -0.0023,0.01149 -0.0063,0.02354 -0.01206,0.03617 -0.02297,0.04823 -0.04134,0.08785 -0.05512,0.118855 -0.01378,0.03101 -0.02412,0.05684 -0.03101,0.07751 -0.0069,0.02067 -0.01148,0.03732 -0.01378,0.04995 -0.0023,0.01263 -0.0034,0.02412 -0.0034,0.03445 0,0.09876 0.02928,0.185461 0.08785,0.260105 0.05857,0.07464 0.14412,0.137229 0.25666,0.187757 0.113688,0.04938 0.253214,0.0867 0.418579,0.111966 0.166513,0.02527 0.357142,0.0379 0.571886,0.0379 0.200964,0 0.389296,-0.0075 0.564996,-0.02239 0.176848,-0.01608 0.338193,-0.04077 0.484036,-0.07407 0.146991,-0.0333 0.277904,-0.07636 0.39274,-0.129191 0.114837,-0.05397 0.211299,-0.118282 0.289388,-0.192925 l 0.180868,-0.199816 c 0.01148,0 0.02009,0.01206 0.02584,0.03617 l -0.01206,0.127468 c 0.02756,0.06316 0.05627,0.114262 0.08613,0.153307 0.03101,0.03789 0.06488,0.06718 0.10163,0.08785 0.03789,0.02067 0.08038,0.03445 0.127469,0.04134 0.04708,0.0069 0.101053,0.01034 0.161919,0.01034 0.07349,0 0.110243,0.06201 0.110243,0.186035 0,0.124023 -0.03675,0.186035 -0.110243,0.186035 z"
       style="font-style:normal;font-variant:normal;font-weight:normal;font-stretch:normal;font-size:3.52777767px;font-family:mry_KacstQurn;-inkscape-font-specification:mry_KacstQurn;fill:#b110b7;fill-opacity:1;stroke-width:0.26458332px"
       id="path1262"
       inkscape:connector-curvature="0"
       sodipodi:nodetypes="sszccczscccccsccccscccscccccccccccscccsccccccccccsscc" />
    </g>
   </g>
   <g
     id="g857"
     style="font-style:normal;font-weight:normal;font-size:31.99999809px;line-height:125%;font-family:Sans;letter-spacing:0px;word-spacing:0px;direction:rtl;fill:#000000;fill-opacity:1;stroke:none;stroke-width:1.99999988px;stroke-linecap:butt;stroke-linejoin:miter;stroke-opacity:1"
     aria-label="لا"
     transform="matrix(0.29415314,0,0,0.29415314,302.69328,269.70892)">
    <path
      inkscape:connector-curvature="0"
      d="m 366.77306,531.78046 c -5.51435,1.52629 -11.35873,0.61491 -17.482,-2.83645 -2.38129,-1.40897 -4.7927,-3.23183 -7.23289,-5.47126 -6.27689,-6.11552 -10.55181,-11.89773 -12.88704,-17.22204 -1.56668,-3.57203 -2.63083,-6.66181 -3.19651,-9.26124 0,0 4.69348,-0.64476 4.69348,-0.64476 0.90625,3.24669 1.99813,6.28101 3.28084,9.09258 1.70523,3.73771 4.91995,7.59119 9.67904,11.49066 0,0 16.45944,-27.43558 16.45944,-27.43558 0,0 4.61653,7.75167 4.61653,7.75167 0,0 -14.79872,24.45549 -14.79872,24.45549 1.22386,0.74878 2.48792,1.32253 3.79193,1.72176 3.0552,0.56955 6.24957,0.43485 9.57455,-0.38697 0,0 18.59458,-4.59596 18.59458,-4.59596 0,0 4.81353,7.83218 4.81353,7.83218 0,0 -19.90676,5.50992 -19.90676,5.50992"
      style="font-style:normal;font-variant:normal;font-weight:500;font-stretch:normal;font-size:24px;font-family:Ubuntu;-inkscape-font-specification:'Ubuntu Medium';direction:rtl;stroke-width:1.99999988px"
      id="path855" />
   </g>
  </g>
 </g>
</svg>
