<?xml version="1.0" encoding="UTF-8" standalone="no"?>
<!-- Created with Inkscape (http://www.inkscape.org/) -->

<svg
  xmlns:dc="http://purl.org/dc/elements/1.1/"
  xmlns:cc="http://creativecommons.org/ns#"
  xmlns:rdf="http://www.w3.org/1999/02/22-rdf-syntax-ns#"
  xmlns:svg="http://www.w3.org/2000/svg"
  xmlns="http://www.w3.org/2000/svg"
  xmlns:sodipodi="http://sodipodi.sourceforge.net/DTD/sodipodi-0.dtd"
  xmlns:inkscape="http://www.inkscape.org/namespaces/inkscape"
  width="210mm"
  height="297mm"
  viewBox="0 0 210 297"
  version="1.1"
  id="svg4397"
  inkscape:version="0.92.4 (unknown)"
  sodipodi:docname="Yes-ar-WithPerspective.svg">
 <defs
   id="defs4391" />
 <sodipodi:namedview
   id="base"
   pagecolor="#ffffff"
   bordercolor="#666666"
   borderopacity="1.0"
   inkscape:pageopacity="0.0"
   inkscape:pageshadow="2"
   inkscape:zoom="8.9221218"
   inkscape:cx="301.53243"
   inkscape:cy="831.70953"
   inkscape:document-units="mm"
   inkscape:current-layer="gItDependsBallotPaper"
   showgrid="false"
   inkscape:window-width="1920"
   inkscape:window-height="1148"
   inkscape:window-x="1280"
   inkscape:window-y="0"
   inkscape:window-maximized="1"
   inkscape:object-nodes="false" />
 <metadata
   id="metadata4394">
  <rdf:RDF>
   <cc:Work
     rdf:about="">
    <dc:format>image/svg+xml</dc:format>
    <dc:type
      rdf:resource="http://purl.org/dc/dcmitype/StillImage" />
    <dc:title></dc:title>
   </cc:Work>
  </rdf:RDF>
 </metadata>
 <g
   inkscape:label="Calque 1"
   inkscape:groupmode="layer"
   id="layer1">
  <g
    transform="matrix(0.13229167,0,0,0.13229167,39.74069,16.528379)"
    id="gItDependsBallotPaper">
   <g
     id="gPileOfPapers-Yes">
    <g
      id="gPileOfPapers">
     <path
       inkscape:connector-curvature="0"
       id="path10352"
       d="m 320.07782,398.23951 22.89041,37.24542 -43.45298,12.02717 -19.39866,-44.22894 z"
       style="fill:#ffffff;fill-opacity:1;stroke:#000000;stroke-width:1px;stroke-linecap:butt;stroke-linejoin:miter;stroke-opacity:1" />
     <g
       id="g852"
       style="font-style:normal;font-weight:normal;font-size:31.99999809px;line-height:125%;font-family:Sans;letter-spacing:0px;word-spacing:0px;fill:#000000;fill-opacity:1;stroke:none;stroke-width:1.99999988px;stroke-linecap:butt;stroke-linejoin:miter;stroke-opacity:1"
       aria-label="نعم"
       transform="matrix(0.5138979,0,0,0.5138979,129.40258,158.92013)">
      <path
        inkscape:connector-curvature="0"
        d="m 384.31458,522.76015 c 0,0 1.31909,2.14631 1.31909,2.14631 0,0 -4.3663,1.20458 -4.3663,1.20458 0,0 -1.29886,-2.18677 -1.29886,-2.18677 0,0 4.34607,-1.16412 4.34607,-1.16412 m -25.88417,8.2898 c -2.04522,-0.31797 -3.47913,-1.32359 -4.30545,-3.00943 0,0 -0.71053,-1.44962 -0.71053,-1.44962 0,0 5.29082,-1.34726 5.29082,-1.34726 0,0 0.2821,0.55215 0.2821,0.55215 0.53198,1.04122 1.33987,1.6819 2.42485,1.91973 1.21009,0.26119 2.83905,0.11721 4.88546,-0.42906 0,0 6.28401,-1.67746 6.28401,-1.67746 0,0 1.5519,2.76514 1.5519,2.76514 0,0 -6.31991,1.74926 -6.31991,1.74926 -3.63079,1.00495 -6.76057,1.31784 -9.38325,0.92655 0,0 0,0 0,0"
        style="font-style:normal;font-variant:normal;font-weight:normal;font-stretch:normal;font-size:24px;font-family:'Droid Sans';-inkscape-font-specification:'Droid Sans';direction:rtl;stroke-width:1.99999988px"
        id="path846" />
      <path
        inkscape:connector-curvature="0"
        d="m 354.91304,517.75936 c -4.52205,-1.27088 -7.3039,-3.01235 -8.36706,-5.1814 0,0 -0.93159,-1.90061 -0.93159,-1.90061 0,0 5.12737,-1.02037 5.12737,-1.02037 0,0 0.77378,1.5145 0.77378,1.5145 0.57497,1.12535 1.41402,1.95577 2.51874,2.48808 0.99388,0.47129 1.96609,0.83412 2.91628,1.08916 1.06664,-1.35197 2.25339,-2.5522 3.56155,-3.60325 0.56238,-0.45783 1.26354,-0.77389 2.10418,-0.94958 0.57912,-0.12104 1.28819,-0.1965 2.12756,-0.22702 1.11849,-0.0566 2.45974,0.32678 4.02647,1.14464 1.35357,0.69097 2.3726,1.61718 3.0547,2.78343 0.6821,1.16625 0.85129,2.28655 0.50518,3.3657 -0.39739,1.26643 -1.0769,2.1113 -2.03581,2.52916 -0.70925,0.32316 -1.35993,0.55825 -1.95171,0.70463 -0.85904,0.21248 -1.74426,0.25873 -2.65495,0.13733 -2.29318,-0.32987 -4.41082,-0.77645 -6.35339,-1.33884 -0.41984,0.46166 -0.86374,1.14739 -1.33294,2.05961 -0.43302,0.82486 -0.34935,1.82772 0.25248,3.00566 0,0 0.77378,1.51449 0.77378,1.51449 0,0 -5.29744,1.36049 -5.29744,1.36049 0,0 -0.93158,-1.9006 -0.93158,-1.9006 -1.06316,-2.16905 -0.35119,-4.70846 2.1144,-7.57521 0,0 0,0 0,0 m 11.94476,-1.77766 c -0.0362,-0.3314 -0.12744,-0.62726 -0.27359,-0.88784 -0.14615,-0.26058 -0.36953,-0.52627 -0.67003,-0.7973 -0.48998,-0.42094 -1.03599,-0.56471 -1.63835,-0.43064 -0.5459,0.1215 -1.42694,0.9043 -2.64899,2.36012 2.36619,0.63633 3.82696,0.88429 4.37644,0.75563 0.60631,-0.14197 0.89127,-0.47552 0.85452,-0.99997 0,0 0,0 0,0"
        style="font-style:normal;font-variant:normal;font-weight:normal;font-stretch:normal;font-size:24px;font-family:'Droid Sans';-inkscape-font-specification:'Droid Sans';direction:rtl;stroke-width:1.99999988px"
        id="path848" />
      <path
        inkscape:connector-curvature="0"
        d="m 344.39027,498.14504 c -0.10943,1.40787 0.0372,2.51717 0.44293,3.32176 0.23491,0.46583 0.60957,0.77563 1.12426,0.92886 1.32768,0.37875 2.52391,0.47363 3.58688,0.28827 0.43984,-0.0767 0.82672,-0.17816 1.16054,-0.30424 1.49733,-0.49689 2.23873,-1.07372 2.22471,-1.7315 -0.001,-0.44649 -0.12897,-0.90473 -0.38277,-1.37528 -0.32552,-0.60355 -0.80824,-1.00417 -1.44771,-1.20271 -1.60794,-0.50523 -3.027,-0.66524 -4.25995,-0.47449 -0.72526,0.1122 -1.54144,0.29511 -2.44887,0.54936 0,0 -2e-5,-3e-5 -2e-5,-3e-5 m 0.32246,7.504 c -0.33693,-0.11351 -0.61324,-0.22661 -0.829,-0.33918 -2.16881,-1.16718 -3.44627,-2.16206 -3.83875,-2.97189 -0.94722,-1.95442 -1.08301,-3.80152 -0.41398,-5.52812 0.24128,-0.60895 -0.53992,-1.21199 -2.33927,-1.81781 -0.59876,-0.20402 -1.60797,-0.20793 -3.02805,-0.0109 0,0 -9.84168,1.36514 -9.84168,1.36514 0,0 -1.49048,-3.3983 -1.49048,-3.3983 0,0 9.77605,-1.23387 9.77605,-1.23387 3.08904,-0.38988 5.86287,-0.0612 8.32883,0.97125 1.33532,0.55171 2.24637,1.29768 2.731,2.24218 0.74609,-0.12939 1.47949,-0.24565 2.20027,-0.34889 2.66688,-0.38197 5.63907,0.0802 8.92939,1.36073 1.57462,0.59596 2.62281,1.35034 3.14165,2.26896 0.40605,0.71893 0.51694,1.55352 0.33087,2.50741 -0.34986,1.93913 -2.0656,3.42112 -5.14427,4.44006 -1.15368,0.38462 -2.02825,0.86161 -2.62416,1.43187 -0.6081,0.55207 -0.63045,1.38109 -0.066,2.48503 0,0 0.60471,1.18278 0.60471,1.18278 0,0 -5.13382,1.03327 -5.13382,1.03327 0,0 -1.02667,-2.09318 -1.02667,-2.09318 -0.92137,-1.8785 -1.00994,-3.06123 -0.26658,-3.54645 0,0 -2e-5,-4e-5 -2e-5,-4e-5"
        style="font-style:normal;font-variant:normal;font-weight:normal;font-stretch:normal;font-size:24px;font-family:'Droid Sans';-inkscape-font-specification:'Droid Sans';direction:rtl;stroke-width:1.99999988px"
        id="path850" />
     </g>
    </g>
   </g>
   <g
     id="gItDepensPaper">
    <path
      inkscape:connector-curvature="0"
      id="rect10450"
      d="m 316.00409,487.6673 h 74.87881 v 45.78082 h -74.87881 z"
      style="fill:#ffffff;fill-opacity:1;fill-rule:nonzero;stroke:#000000;stroke-width:1;stroke-linecap:round;stroke-linejoin:round;stroke-miterlimit:4;stroke-dashoffset:0;stroke-opacity:1" />
    <g
      aria-label="نعم"
      style="font-style:normal;font-weight:normal;font-size:31.99999809px;line-height:125%;font-family:Sans;letter-spacing:0px;word-spacing:0px;fill:#000000;fill-opacity:1;stroke:none;stroke-width:1.99999988px;stroke-linecap:butt;stroke-linejoin:miter;stroke-opacity:1"
      id="text4586">
     <path
       d="m 366.7384,501.81555 h 1.75782 v 1.75781 h -1.75782 z m 0.87891,10.71094 q -0.84375,1.00781 -2.68359,1.00781 h -1.05469 v -2.15625 h 0.41015 q 1.16016,0 1.67579,-0.51562 0.57421,-0.57422 0.57421,-1.81641 v -2.54297 h 2.15625 v 2.54297 q 0,2.19141 -1.07812,3.48047 z"
       style="font-style:normal;font-variant:normal;font-weight:normal;font-stretch:normal;font-size:24px;font-family:'Droid Sans';-inkscape-font-specification:'Droid Sans';direction:rtl;stroke-width:1.99999988px"
       id="path839"
       inkscape:connector-curvature="0" />
     <path
       d="m 358.32434,511.36633 q -2.27344,2.16797 -4.64062,2.16797 h -1.38282 v -2.15625 h 1.125 q 1.25391,0 2.02735,-0.46875 0.6914,-0.42187 1.16015,-0.8789 -1.13672,-0.9961 -1.93359,-2.05079 -0.35156,-0.45703 -0.35156,-0.98437 0,-0.36328 0.15234,-0.84375 0.1875,-0.64453 1.40625,-1.25391 1.04297,-0.52734 2.4375,-0.52734 1.39453,0 2.4375,0.52734 1.21875,0.60938 1.40625,1.25391 0.15234,0.48047 0.15234,0.84375 0,0.52734 -0.35156,0.98437 -0.90234,1.14844 -1.93359,2.05079 0.36328,0.36328 1.16015,0.8789 0.71485,0.46875 2.02735,0.46875 h 1.125 v 2.15625 h -1.38281 q -2.36719,0 -4.64063,-2.16797 z m 0.65625,-4.74609 q -0.35156,-0.082 -0.65625,-0.082 -0.30469,0 -0.65625,0.082 -0.55078,0.14062 -0.55078,0.51562 0,0.33985 1.20703,1.45313 1.20703,-1.11328 1.20703,-1.45313 0,-0.375 -0.55078,-0.51562 z"
       style="font-style:normal;font-variant:normal;font-weight:normal;font-stretch:normal;font-size:24px;font-family:'Droid Sans';-inkscape-font-specification:'Droid Sans';direction:rtl;stroke-width:1.99999988px"
       id="path841"
       inkscape:connector-curvature="0" />
     <path
       d="m 343.69934,511.56555 q 1.42969,0.49219 2.32031,0.49219 0.51563,0 0.76172,-0.25781 0.6211,-0.66797 0.6211,-1.34766 0,-0.28125 -0.0703,-0.51562 -0.24609,-1.03125 -0.9375,-1.23047 -0.46875,-0.14063 -1.00781,-0.14063 -0.69141,0 -1.00781,0.31641 -0.79688,0.79687 -0.79688,1.59375 0,0.46875 0.11719,1.08984 z m 5.13281,1.35938 q -0.17578,0.16406 -0.32812,0.25781 -1.5586,0.9375 -2.4375,0.9375 -2.1211,0 -3.77344,-0.91406 -0.58594,-0.32813 -1.46484,0.58593 -0.29297,0.30469 -0.29297,1.23047 v 4.27735 h -2.34375 v -4.27735 q 0,-2.02734 1.40625,-3.22265 0.76172,-0.64453 1.8164,-0.64453 -0.0234,-0.49219 -0.0234,-0.96094 0,-1.73438 1.89843,-3.28125 0.90235,-0.73828 1.98047,-0.73828 0.84375,0 1.82813,0.42187 1.99219,0.83203 2.46094,2.92969 0.17578,0.78516 0.64453,1.30078 0.44531,0.51563 1.67578,0.51563 h 0.8789 v 2.15625 h -1.52343 q -2.05078,0 -2.40235,-0.57422 z"
       style="font-style:normal;font-variant:normal;font-weight:normal;font-stretch:normal;font-size:24px;font-family:'Droid Sans';-inkscape-font-specification:'Droid Sans';direction:rtl;stroke-width:1.99999988px"
       id="path843"
       inkscape:connector-curvature="0" />
    </g>
   </g>
  </g>
 </g>
</svg>
