<?xml version="1.0" encoding="UTF-8" standalone="no"?>
<!-- Created with Inkscape (http://www.inkscape.org/) -->

<svg
  xmlns:dc="http://purl.org/dc/elements/1.1/"
  xmlns:cc="http://creativecommons.org/ns#"
  xmlns:rdf="http://www.w3.org/1999/02/22-rdf-syntax-ns#"
  xmlns:svg="http://www.w3.org/2000/svg"
  xmlns="http://www.w3.org/2000/svg"
  xmlns:xlink="http://www.w3.org/1999/xlink"
  xmlns:sodipodi="http://sodipodi.sourceforge.net/DTD/sodipodi-0.dtd"
  xmlns:inkscape="http://www.inkscape.org/namespaces/inkscape"
  width="210mm"
  height="297mm"
  viewBox="0 0 210 297"
  version="1.1"
  id="svg4397"
  inkscape:version="0.92.4 (unknown)"
  sodipodi:docname="Yes-No-cat.svg">
 <defs
   id="defs4391" />
 <sodipodi:namedview
   id="base"
   pagecolor="#ffffff"
   bordercolor="#666666"
   borderopacity="1.0"
   inkscape:pageopacity="0.0"
   inkscape:pageshadow="2"
   inkscape:zoom="13.639551"
   inkscape:cx="327.14286"
   inkscape:cy="827.14286"
   inkscape:document-units="mm"
   inkscape:current-layer="gItDependsBallotPaper"
   showgrid="false"
   inkscape:window-width="1920"
   inkscape:window-height="1148"
   inkscape:window-x="1280"
   inkscape:window-y="0"
   inkscape:window-maximized="1"
   inkscape:object-nodes="false" />
 <metadata
   id="metadata4394">
  <rdf:RDF>
   <cc:Work
     rdf:about="">
    <dc:format>image/svg+xml</dc:format>
    <dc:type
      rdf:resource="http://purl.org/dc/dcmitype/StillImage" />
    <dc:title />
   </cc:Work>
  </rdf:RDF>
 </metadata>
 <g
   inkscape:label="Calque 1"
   inkscape:groupmode="layer"
   id="layer1">
  <g
    transform="matrix(0.13229167,0,0,0.13229167,39.74069,16.528379)"
    id="gItDependsBallotPaper">
   <g
     id="gPileOfPapers-Yes">
    <g
      id="gPileOfPapers">
     <path
       inkscape:connector-curvature="0"
       id="path10344"
       d="m 335.20877,447.31811 3.49176,4.84966 -38.40934,23.66636 -32.20177,-37.24542 8.14744,-3.49175"
       style="fill:#ffffff;fill-opacity:1;stroke:#000000;stroke-width:1px;stroke-linecap:butt;stroke-linejoin:miter;stroke-opacity:1" />
     <path
       inkscape:connector-curvature="0"
       id="path10346"
       d="m 329.77715,450.80987 3.87973,7.95345 -46.55677,5.04365 -12.41514,-47.7207 4.07371,0.58196"
       style="fill:#ffffff;fill-opacity:1;stroke:#000000;stroke-width:1px;stroke-linecap:butt;stroke-linejoin:miter;stroke-opacity:1" />
     <path
       inkscape:connector-curvature="0"
       id="path10348"
       d="m 336.56668,437.42479 5.23764,5.43163 -38.02137,23.66636 -31.8138,-37.24542 9.11737,-4.26771"
       style="fill:#ffffff;fill-opacity:1;stroke:#000000;stroke-width:1px;stroke-linecap:butt;stroke-linejoin:miter;stroke-opacity:1" />
     <path
       inkscape:connector-curvature="0"
       id="path10350"
       d="m 330.16512,439.55865 4.26771,10.66926 -45.00489,5.43162 -12.80311,-48.10867 5.43163,0.38798"
       style="fill:#ffffff;fill-opacity:1;stroke:#000000;stroke-width:1px;stroke-linecap:butt;stroke-linejoin:miter;stroke-opacity:1" />
     <path
       inkscape:connector-curvature="0"
       id="path10352"
       d="m 320.07782,398.23951 22.89041,37.24542 -43.45298,12.02717 -19.39866,-44.22894 z"
       style="fill:#ffffff;fill-opacity:1;stroke:#000000;stroke-width:1px;stroke-linecap:butt;stroke-linejoin:miter;stroke-opacity:1" />
    </g>
    <g
      aria-label="SI"
      style="font-style:normal;font-weight:normal;font-size:31.99999809px;line-height:125%;font-family:Sans;letter-spacing:0px;word-spacing:0px;fill:#000000;fill-opacity:1;stroke:none;stroke-width:1.99999988px;stroke-linecap:butt;stroke-linejoin:miter;stroke-opacity:1"
      id="gYes"
      transform="matrix(0.35233324,0,0,0.35233324,202.4915,270.04268)">
     <path
       id="path4609"
       style="font-style:normal;font-variant:normal;font-weight:500;font-stretch:normal;font-size:24px;font-family:Ubuntu;-inkscape-font-specification:'Ubuntu Medium';stroke-width:1.99999988px"
       d="m 292.26502,415.81268 c 1.25788,2.72592 2.61212,4.626 4.06591,5.69384 1.45805,1.05933 2.9944,1.42226 4.60587,1.09518 0.95921,-0.19469 1.67946,-0.57674 2.15986,-1.14437 0.49836,-0.52647 0.8232,-1.22921 0.97406,-2.10731 0.20658,-0.84353 0.26745,-1.84591 0.18238,-3.00671 -0.0492,-1.16362 -0.19717,-2.47249 -0.44422,-3.926 -0.21205,-1.45457 -0.36988,-2.87155 -0.47368,-4.25056 -0.0499,-1.3407 0.096,-2.56207 0.43756,-3.66348 0.35779,-1.05684 0.96808,-1.96153 1.83114,-2.71462 0.88011,-0.7101 2.14843,-1.17031 3.8071,-1.38494 3.46478,-0.44835 6.85164,0.35092 10.17599,2.36695 3.38227,1.96916 6.27137,4.87448 8.65159,8.74739 1.38138,2.24767 2.31607,4.2935 2.80068,6.14422 0.53988,1.8862 0.7853,3.41 0.73723,4.56943 0,0 -7.14334,-0.77193 -7.14334,-0.77193 0.0322,-1.37525 -0.1848,-2.83208 -0.65001,-4.37261 -0.4469,-1.50004 -1.11767,-3.01272 -2.01052,-4.54161 -1.05896,-1.81334 -2.28498,-3.16863 -3.67531,-4.07131 -1.3661,-0.87408 -2.75939,-1.20067 -4.18251,-0.97451 -0.86136,0.13689 -1.51912,0.42031 -1.97396,0.85161 -0.39807,0.46378 -0.67029,1.04908 -0.81693,1.75646 -0.12791,0.74698 -0.16944,1.58286 -0.12468,2.50782 0.0632,0.96515 0.18366,2.00445 0.36128,3.11806 0.28773,1.96054 0.44221,3.72916 0.46416,5.30441 0.0758,1.61349 -0.13458,3.02266 -0.63114,4.22728 -0.44235,1.24223 -1.20897,2.28722 -2.29904,3.13331 -1.05407,0.84302 -2.53656,1.48621 -4.44535,1.92528 -3.66177,0.84231 -7.12167,0.14652 -10.36411,-2.11856 -3.1651,-2.27372 -5.89276,-6.05371 -8.19807,-11.3098 -0.77443,-1.76572 -1.37322,-3.40611 -1.79731,-4.91923 -0.44466,-1.46387 -0.77127,-2.7906 -0.98007,-3.97976 -0.19201,-1.14564 -0.32181,-2.1459 -0.38915,-3.0013 -0.0314,-0.8583 -0.0279,-1.54716 0.0111,-2.06742 0,0 6.72291,1.4849 6.72291,1.4849 -0.0507,1.14852 0.0729,2.68058 0.36961,4.59873 0.29261,1.92639 1.03856,4.1955 2.24095,6.80116 0,0 0,0 0,0"
       inkscape:connector-curvature="0" />
     <path
       id="path4611"
       style="font-style:normal;font-variant:normal;font-weight:500;font-stretch:normal;font-size:24px;font-family:Ubuntu;-inkscape-font-specification:'Ubuntu Medium';stroke-width:1.99999988px"
       d="m 338.00485,429.18809 c 0,0 4.00309,6.56262 4.00309,6.56262 0,0 -41.59242,11.51219 -41.59242,11.51219 0,0 -3.41662,-7.73556 -3.41662,-7.73556 0,0 41.00595,-10.33925 41.00595,-10.33925"
       inkscape:connector-curvature="0" />
    </g>
   </g>
   <use
     height="1052.3622"
     width="744.09448"
     transform="rotate(-30,305.52881,437.03682)"
     id="usePileOfPapers-Yes"
     xlink:href="#gPileOfPapers-Yes"
     y="0"
     x="0" />
   <g
     transform="rotate(-15,355.52882,57.249108)"
     id="gPileOfPapers-No">
    <use
      height="1052.3622"
      width="744.09448"
      x="0"
      y="0"
      xlink:href="#gPileOfPapers"
      id="use10447" />
    <g
      aria-label="NO"
      style="font-style:normal;font-weight:normal;font-size:31.99999809px;line-height:125%;font-family:Sans;letter-spacing:0px;word-spacing:0px;fill:#000000;fill-opacity:1;stroke:none;stroke-width:1.99999988px;stroke-linecap:butt;stroke-linejoin:miter;stroke-opacity:1"
      id="text822"
      transform="matrix(0.43736975,0,0,0.43736975,175.66131,236.5262)">
     <path
       id="path826"
       style="font-style:normal;font-variant:normal;font-weight:500;font-stretch:normal;font-size:24px;font-family:Ubuntu;-inkscape-font-specification:'Ubuntu Medium';stroke-width:1.99999988px"
       d="m 287.51347,418.0514 c 1.8374,-1.10425 3.78167,-2.30638 5.83096,-3.6027 2.07847,-1.28574 4.13356,-2.5847 6.16481,-3.89595 2.05949,-1.29877 4.00605,-2.58406 5.83994,-3.85635 1.87244,-1.24047 3.51536,-2.39008 4.9306,-3.45255 0,0 -27.59104,3.88389 -27.59104,3.88389 0,0 -1.74422,-3.94907 -1.74422,-3.94907 0,0 38.25019,-4.82769 38.25019,-4.82769 0,0 1.69751,2.78289 1.69751,2.78289 -1.11862,0.94084 -2.50719,1.98995 -4.16801,3.15191 -1.63177,1.17282 -3.3651,2.3764 -5.20054,3.61181 -1.83389,1.2723 -3.71617,2.52693 -5.64636,3.76295 -1.89077,1.2661 -3.68883,2.42263 -5.39209,3.46544 0,0 26.10935,-4.64376 26.10935,-4.64376 0,0 2.06009,3.3773 2.06009,3.3773 0,0 -39.6361,7.59955 -39.6361,7.59955 0,0 -1.50509,-3.40767 -1.50509,-3.40767"
       inkscape:connector-curvature="0" />
     <path
       id="path828"
       style="font-style:normal;font-variant:normal;font-weight:500;font-stretch:normal;font-size:24px;font-family:Ubuntu;-inkscape-font-specification:'Ubuntu Medium';stroke-width:1.99999988px"
       d="m 312.97783,425.57722 c -2.20905,0.48801 -4.15422,1.0729 -5.83705,1.75775 -1.64605,0.68026 -2.98284,1.43007 -4.01085,2.25043 -0.98205,0.83736 -1.64083,1.73076 -1.97594,2.67938 -0.33722,0.95285 -0.27621,1.92972 0.18461,2.92743 0.45122,0.97692 1.21357,1.77219 2.28864,2.38263 1.07719,0.6062 2.37507,1.01374 3.89398,1.22194 1.57092,0.21312 3.33824,0.22171 5.30138,0.0269 2.00483,-0.20923 4.13961,-0.61353 6.40281,-1.20984 2.26321,-0.59631 4.23557,-1.27006 5.9156,-2.01827 1.71769,-0.75457 3.0675,-1.55042 4.04895,-2.38659 1.02897,-0.82227 1.69487,-1.67545 1.99811,-2.56033 0.30113,-0.88066 0.19788,-1.75305 -0.30815,-2.62037 -0.51679,-0.88577 -1.33156,-1.59619 -2.44273,-2.13442 -1.10906,-0.54248 -2.44923,-0.9199 -4.02004,-1.13323 -1.5575,-0.19998 -3.30158,-0.23504 -5.23274,-0.1042 -1.92916,0.12685 -3.99752,0.43278 -6.20658,0.92079 0,0 0,0 0,0 m 8.26392,15.9213 c -3.56107,0.98565 -6.83598,1.58315 -9.82048,1.78397 -2.9691,0.21 -5.59042,0.083 -7.86316,-0.38255 -2.21698,-0.46814 -4.06708,-1.2315 -5.55174,-2.2872 -1.48031,-1.06439 -2.54116,-2.33474 -3.1858,-3.80453 -0.64465,-1.46978 -0.8078,-2.96969 -0.49277,-4.49309 0.32005,-1.49344 1.13303,-2.91441 2.43739,-4.25982 1.34619,-1.32011 3.19735,-2.53184 5.55402,-3.63628 2.35099,-1.09306 5.23542,-1.98924 8.65757,-2.69705 3.42214,-0.70781 6.56229,-1.07026 9.42465,-1.09575 2.90652,-0.0448 5.49618,0.16545 7.76962,0.6296 2.29088,0.46927 4.21848,1.15211 5.78102,2.05204 1.56688,0.89124 2.72677,1.9435 3.47643,3.16327 0.74965,1.21978 1.00718,2.49096 0.76931,3.82005 -0.24221,1.33779 -1.03264,2.65918 -2.37282,3.96727 -1.33585,1.33943 -3.21859,2.63431 -5.64755,3.88334 -2.39467,1.24936 -5.37463,2.37108 -8.93569,3.35673 0,0 0,0 0,0"
       inkscape:connector-curvature="0" />
    </g>
   </g>
   <g
     id="gItDepensPaper"
     transform="rotate(-3.8626353,353.44349,510.55774)">
    <path
      inkscape:connector-curvature="0"
      id="rect10450"
      d="m 316.00409,487.6673 h 74.87881 v 45.78082 h -74.87881 z"
      style="fill:#ffffff;fill-opacity:1;fill-rule:nonzero;stroke:#000000;stroke-width:1;stroke-linecap:round;stroke-linejoin:round;stroke-miterlimit:4;stroke-dashoffset:0;stroke-opacity:1" />
    <g
      aria-label="SI"
      style="font-style:normal;font-weight:normal;font-size:31.99999809px;line-height:125%;font-family:Sans;letter-spacing:0px;word-spacing:0px;fill:#000000;fill-opacity:1;stroke:none;stroke-width:1.99999988px;stroke-linecap:butt;stroke-linejoin:miter;stroke-opacity:1"
      id="text4586"
      transform="translate(-0.5851972,-0.03951136)">
     <path
       d="m 352.5294,516.56675 q 1.632,0 2.376,-0.552 0.744,-0.552 0.744,-1.56 0,-0.6 -0.264,-1.032 -0.24,-0.432 -0.72,-0.768 -0.456,-0.36 -1.128,-0.648 -0.672,-0.312 -1.536,-0.6 -0.864,-0.312 -1.68,-0.672 -0.792,-0.384 -1.416,-0.936 -0.6,-0.552 -0.984,-1.32 -0.36,-0.768 -0.36,-1.848 0,-2.256 1.56,-3.528 1.56,-1.296 4.248,-1.296 1.56,0 2.76,0.36 1.224,0.336 1.92,0.744 l -0.936,2.448 q -0.816,-0.456 -1.8,-0.696 -0.96,-0.24 -1.992,-0.24 -1.224,0 -1.92,0.504 -0.672,0.504 -0.672,1.416 0,0.552 0.216,0.96 0.24,0.384 0.648,0.696 0.432,0.312 0.984,0.576 0.576,0.264 1.248,0.504 1.176,0.432 2.088,0.888 0.936,0.432 1.56,1.056 0.648,0.6 0.984,1.44 0.336,0.816 0.336,1.992 0,2.256 -1.608,3.504 -1.584,1.224 -4.656,1.224 -1.032,0 -1.896,-0.144 -0.84,-0.12 -1.512,-0.312 -0.648,-0.192 -1.128,-0.384 -0.48,-0.216 -0.768,-0.384 l 0.888,-2.472 q 0.648,0.36 1.752,0.72 1.104,0.36 2.664,0.36 z"
       style="font-style:normal;font-variant:normal;font-weight:500;font-stretch:normal;font-size:24px;font-family:Ubuntu;-inkscape-font-specification:'Ubuntu Medium';stroke-width:1.99999988px"
       id="path904"
       inkscape:connector-curvature="0" />
     <path
       d="m 361.4349,502.19075 h 3.024 v 16.632 h -3.024 z"
       style="font-style:normal;font-variant:normal;font-weight:500;font-stretch:normal;font-size:24px;font-family:Ubuntu;-inkscape-font-specification:'Ubuntu Medium';stroke-width:1.99999988px"
       id="path906"
       inkscape:connector-curvature="0" />
    </g>
    <g
      transform="matrix(0.153853,0,0,0.153853,294.60103,449.01131)"
      id="gItDependsWriting">
     <path
       inkscape:connector-curvature="0"
       style="fill:#b110b7;fill-opacity:1;fill-rule:evenodd;stroke:none"
       d="m 294.08362,295.03866 c -0.43129,0.17491 -1.00263,-0.0746 -1.72627,-0.49186 -0.72365,-0.41725 -1.61573,-1.02623 -2.66239,-1.29787 -0.82532,-0.25059 -1.83333,-0.3335 -2.89565,-0.20932 0,0 0,0 0,0 -0.91923,0.0758 -1.898,0.34989 -2.91397,0.82346 -1.01596,0.47357 -2.07035,1.14663 -3.09198,1.94158 -0.78123,0.7171 -1.5256,1.50744 -2.09759,2.32154 -0.57198,0.81409 -0.97122,1.65125 -1.01509,2.45775 -0.10658,0.65595 -0.0385,1.40979 0.19429,2.06709 0.0865,0.31552 0.23832,0.64316 0.44227,0.98316 0.35846,0.59759 0.86795,1.21918 1.43568,1.85544 2.08407,2.05879 3.92201,3.74758 5.77703,4.58001 2.08663,1.13072 4.77079,1.34473 7.24107,1.387 2.35439,-0.0534 4.2316,-0.0625 5.77463,-0.22501 0.77475,-0.10859 1.47194,-0.19182 2.07749,-0.28657 0.60556,-0.0948 1.1221,-0.20001 1.56936,-0.29908 0.89451,-0.19815 1.55295,-0.37204 1.97842,-0.0884 0.21274,0.14182 0.34958,0.39646 0.36756,0.7714 0.018,0.37494 -0.0853,0.87025 -0.35808,1.44412 -0.27282,0.57386 -0.7179,1.22547 -1.3502,1.86958 -0.63229,0.6441 -1.4543,1.27928 -2.40817,1.79386 -1.80127,1.04313 -4.12953,1.90068 -6.57769,2.53333 -1.58047,0.42336 -3.37222,0.71057 -5.34081,0.71885 -1.9686,0.008 -4.11451,-0.2631 -6.35717,-0.98557 -3.63489,-1.31913 -6.86545,-3.59601 -9.42556,-6.18141 -1.13987,-1.07134 -2.19806,-2.38285 -3.06852,-3.93566 -0.49525,-0.88348 -0.92243,-1.83255 -1.2673,-2.83972 -0.76192,-2.39223 -0.83518,-4.89158 -0.28934,-7.24229 0.66255,-2.44904 1.79226,-4.5124 3.15529,-6.18082 1.36302,-1.66842 2.95854,-2.94245 4.59514,-3.85566 1.90111,-1.17581 3.97109,-1.92298 5.98428,-2.26229 2.01319,-0.33931 3.9688,-0.27251 5.71341,0.0976 0,0 0,0 0,0 2.21537,0.48638 3.98386,1.60932 5.17138,2.83886 0.72122,0.77937 1.19161,1.55301 1.49824,2.251 0.30662,0.698 0.44979,1.32126 0.49424,1.83843 0.0889,1.03435 -0.19271,1.63254 -0.624,1.80745 z"
       id="path10781" />
     <path
       inkscape:connector-curvature="0"
       style="fill:#b110b7;fill-opacity:1;fill-rule:evenodd;stroke:none"
       d="m 294.08362,266.32865 c 0.52684,0.1232 0.8996,0.73131 1.27408,1.66509 0.37448,0.93378 0.79472,2.19652 1.21582,3.92188 0.53251,2.03444 1.15325,4.53443 1.87346,7.44788 1e-5,0 1e-5,0 1e-5,0 1.12942,4.54202 2.46276,9.91837 4.15708,15.5961 0.19735,0.66133 0.39623,1.31611 0.5963,1.96374 0.95579,2.93273 1.80045,5.65303 2.70501,8.02457 0.90456,2.37154 1.87356,4.39734 2.93124,6.10109 0.52148,0.78725 0.96354,1.4962 1.39032,2.07459 0.42678,0.5784 0.83886,1.02746 1.27145,1.35879 0.33867,0.36388 0.78659,0.62826 1.24092,0.83549 0.45433,0.20723 0.91678,0.35693 1.33413,0.49102 0.83471,0.26818 1.49993,0.48276 1.73668,0.95627 0.11838,0.23675 0.1231,0.52913 -0.021,0.86946 -0.14408,0.34033 -0.43805,0.72941 -0.92021,1.10745 -0.48217,0.37803 -1.1543,0.74543 -2.03583,0.9811 -0.88154,0.23567 -1.97444,0.33949 -3.25077,0.12686 -1.1529,-0.23462 -2.36322,-0.67875 -3.52494,-1.32704 -1.16172,-0.64829 -2.27373,-1.50171 -3.22161,-2.48009 -1.94603,-1.90563 -3.77792,-4.32351 -5.32562,-7.08154 -1.5477,-2.75803 -2.80821,-5.85087 -3.80476,-8.98 -0.23743,-0.71081 -0.46554,-1.43197 -0.6835,-2.16237 -1.87117,-6.2707 -2.70665,-12.33073 -2.83575,-17.37045 0,0 0,0 0,0 -0.0874,-3.23562 0.13095,-6.13356 0.58263,-8.42444 0.35442,-1.84276 0.90007,-3.43021 1.51863,-4.41996 0.61857,-0.98975 1.26938,-1.39869 1.79622,-1.27549 z"
       id="path10785" />
     <path
       inkscape:connector-curvature="0"
       style="fill:#b110b7;fill-opacity:1;fill-rule:nonzero;stroke:none"
       d="m 328.22526,295.03866 c 0.10864,-0.39495 0.60236,-0.66324 1.39323,-0.87663 0.79086,-0.2134 1.88071,-0.37676 3.21333,-0.61121 1.33262,-0.23444 2.91076,-0.54376 4.67395,-1.03264 1.7632,-0.48888 3.71383,-1.15936 5.74761,-2.05571 0.64077,-0.40015 1.01367,-0.5356 0.72981,-0.53472 -0.42728,0.25937 -0.61971,0.82843 -0.71296,1.95476 0.22271,0.74141 0.19806,1.05721 0.15998,0.86608 0,0 0,0 0,0 -0.16611,-0.14558 -0.53806,-0.3201 -1.05493,-0.60634 -1.21958,-0.61465 -2.65006,-1.032 -4.17685,-1.24871 -1.39845,-6.6e-4 -2.36172,-0.21402 -2.31622,0.0604 -0.42887,-0.0128 -0.7731,0.35421 -1.1104,0.9964 -0.53384,1.01638 -1.04273,2.67247 -1.78023,4.38825 -0.36441,1.35015 -0.6316,2.49395 -0.58186,3.41229 0.0314,0.66229 0.10482,1.2389 0.29496,1.59282 0.064,0.4666 0.50383,0.88861 1.12403,1.3025 0.6202,0.4139 1.4205,0.8194 2.24895,1.23193 1.29566,0.53754 2.66347,0.90589 4.01637,1.2123 1.35291,0.3064 2.69056,0.55037 3.94423,0.79074 0,0 0,0 0,0 2.71542,0.50973 5.00672,0.93672 6.5816,1.44865 1.57489,0.51194 2.43568,1.08248 2.43568,1.6759 0,0.59342 -0.84504,1.1618 -2.40035,1.70643 -1.55532,0.54462 -3.81908,1.09187 -6.79807,1.43703 0,0 0,0 0,0 -1.34329,0.16532 -2.85188,0.28633 -4.53134,0.27507 -1.67947,-0.0113 -3.53044,-0.15463 -5.54246,-0.56835 -1.43721,-0.23905 -2.98865,-0.74324 -4.53038,-1.63541 -1.54173,-0.89217 -3.07374,-2.17275 -4.42113,-3.97129 -1.15139,-1.7991 -1.8292,-3.78788 -1.99838,-5.77255 -0.20275,-2.41322 0.0687,-4.71007 0.62551,-6.73786 0.35567,-2.29252 1.30767,-4.95894 3.22713,-7.44772 1.21279,-1.57252 2.78565,-3.0313 4.74548,-4.23845 3.37933,-1.39252 6.31598,-1.35502 8.43029,-0.7462 2.60234,0.49971 5.06222,1.4895 7.21571,2.86466 0.95342,0.58109 1.96245,1.39428 2.91987,2.45356 0,0 1e-5,0 1e-5,0 0.83685,0.74712 1.55876,2.17029 1.93982,4.14587 0.058,2.30521 -0.67759,4.03878 -1.91359,5.11773 -1.65967,1.39517 -3.12814,1.99175 -4.23678,2.17474 -2.72873,0.69117 -5.32063,0.93853 -7.58691,0.88471 -2.26628,-0.0538 -4.2079,-0.40478 -5.73849,-0.87366 -1.53059,-0.46887 -2.6527,-1.05133 -3.35548,-1.59511 -0.70279,-0.54379 -0.98938,-1.04528 -0.88074,-1.44023 z"
       id="path10789" />
     <path
       inkscape:connector-curvature="0"
       style="fill:#b110b7;fill-opacity:1;fill-rule:evenodd;stroke:none"
       d="m 423.92852,259.16257 c 0.62038,-1.2327 2.23446,-1.81038 4.27887,-1.83521 2.04442,-0.0248 4.47994,0.49102 6.90803,1.30776 0.0372,0.0126 0.0743,0.0251 0.11133,0.0376 1.23549,0.37687 2.30921,0.83875 3.24534,1.31409 0.93613,0.47533 1.74113,0.96254 2.4544,1.4505 0.71324,0.488 1.33976,0.97917 1.84472,1.51703 0.50497,0.53784 0.88839,1.12843 1.00085,1.80386 0.11246,0.67542 -0.0727,1.37449 -0.60139,2.0203 -0.52867,0.6458 -1.40234,1.23235 -2.54534,1.64024 -1.14299,0.4079 -2.55107,0.63213 -4.04787,0.59692 -1.49681,-0.0352 -3.07506,-0.33168 -4.54751,-0.86851 -0.0466,-0.0156 -0.0932,-0.0314 -0.13978,-0.0475 -3.03948,-1.04646 -5.36118,-2.7297 -6.73633,-4.39079 -1.37514,-1.66109 -1.84567,-3.31364 -1.22529,-4.54634 z"
       id="path10793" />
     <path
       inkscape:connector-curvature="0"
       style="fill:#b110b7;fill-opacity:1;fill-rule:evenodd;stroke:none"
       d="m 375.55798,288.05514 c 1.37956,0.0348 2.5549,3.20305 3.29286,8.30118 0.73795,5.09814 1.02473,12.11607 0.75229,19.80742 -0.27244,7.69135 -1.01806,14.61095 -1.99858,19.62565 -0.98053,5.0147 -2.21847,8.13388 -3.59847,8.13388 -1.38,0 -2.64167,-3.14117 -3.46974,-8.24043 -0.82806,-5.09927 -1.20035,-12.14648 -0.92747,-19.8726 0.27287,-7.72612 1.10472,-14.67284 2.17535,-19.68641 1.07063,-5.01356 2.3942,-8.10346 3.77376,-8.06869 z"
       id="path10797" />
     <path
       inkscape:connector-curvature="0"
       style="fill:#b110b7;fill-opacity:1;fill-rule:nonzero;stroke:none"
       d="m 372.45419,283.39947 c 0.0113,-0.57835 0.68214,-1.11046 1.86629,-1.66076 1.18415,-0.5503 2.8773,-1.15514 5.17965,-1.69957 2.50445,-0.60754 5.64378,-1.17855 9.40937,-1.33289 2.84325,-0.14729 6.21901,-0.007 9.94915,1.16421 3.01261,0.85564 6.1714,2.97654 8.32155,6.72857 0.49402,0.84018 0.88978,1.80928 1.1461,2.88802 0.41985,1.76701 0.45264,3.7872 -0.0155,5.92835 -1.03564,3.02675 -2.83192,5.1072 -4.7734,6.30348 -2.28583,1.50622 -4.52971,2.33528 -6.52976,2.81768 0,0 -10e-6,0 -10e-6,0 -2.43553,0.62351 -4.70953,0.90926 -6.76858,1.02457 -2.2084,0.12845 -4.22302,0.0746 -6.00052,-0.0881 -1.48659,-0.13639 -2.87577,-0.3471 -4.07679,-0.64183 -0.2157,-0.93383 -0.66026,-1.79173 -1.22198,-2.62454 0,0 0,0 0,0 0,0 0,0 0,-10e-6 0.004,-0.18368 0.004,-0.36391 0.005,-0.54951 0,-1e-5 0,-1e-5 0,-1e-5 2.7e-4,-0.0376 -7e-5,-0.0758 0.004,-0.11535 0.004,-0.0388 0.0114,-0.0764 0.0186,-0.11306 0.0376,-0.19064 0.0765,-0.36992 0.11169,-0.54768 0,0 0,0 0,-10e-6 0.0702,-0.35497 0.13028,-0.6961 0.18056,-1.02643 0,0 0,0 0,0 0.63389,0.0576 1.0958,0.18269 1.46622,0.30915 0,0 0,0 0,0 1.7092,0.53193 2.59163,1.1896 2.59163,1.85841 0,0.66881 -0.91991,1.28936 -2.47679,1.92055 0,0 0,0 0,0 -0.38593,0.14944 -0.76161,0.28442 -1.03089,0.45149 0,0 0,0 0,0 -0.0368,-0.31978 -0.0644,-0.64928 -0.0814,-0.98606 0,0 0,0 0,0 -0.009,-0.16865 -0.0156,-0.34105 -0.0159,-0.50746 -5e-5,-0.032 -4.5e-4,-0.0631 0.004,-0.0933 0.004,-0.0307 0.0123,-0.063 0.0202,-0.096 0,-1e-5 0,-1e-5 0,-1e-5 0.0388,-0.16341 0.0839,-0.33722 0.13076,-0.51268 0,-10e-6 0,-10e-6 1e-5,-10e-6 0,0 0,0 0,0 -0.0472,-0.73469 0.06,-1.59917 0.41283,-2.51999 1.01644,-0.24397 2.18259,-0.53641 3.53775,-0.85283 1.57459,-0.37506 3.31386,-0.79197 5.16123,-1.29973 1.72978,-0.47902 3.51864,-1.01213 5.24512,-1.71631 0,0 0,0 0,0 1.44066,-0.61521 2.756,-1.20772 3.64071,-1.98106 0.56001,-0.60227 1.02879,-0.99891 0.85858,-1.08171 0.12616,0.006 0.0368,-0.24557 -0.12744,-0.69043 -0.10026,-0.27159 -0.22618,-0.61064 -0.34366,-0.99344 -0.0844,-0.71715 -1.33182,-1.41226 -2.6901,-2.15017 -2.05338,-0.9369 -4.55498,-1.31867 -7.02817,-1.70085 -3.19549,-0.46187 -6.20024,-0.7032 -8.70442,-1.04184 -2.21396,-0.30197 -4.12523,-0.65036 -5.41744,-1.13209 -1.29221,-0.48173 -1.96894,-1.06038 -1.95766,-1.63873 z"
       id="path10801" />
     <path
       inkscape:connector-curvature="0"
       style="fill:#b110b7;fill-opacity:1;fill-rule:nonzero;stroke:none"
       d="m 422.8907,290.38298 c 0.0114,-0.60706 1.00016,-1.16023 2.7105,-1.69766 0.85516,-0.26871 1.88554,-0.53431 3.00537,-0.85823 1.11983,-0.32392 2.3292,-0.70342 3.49382,-1.29168 0,-1e-5 0,-1e-5 0,-1e-5 0.69938,-0.40454 1.39347,-0.80057 1.92274,-1.18867 0.52926,-0.38811 0.894,-0.76769 0.85893,-1.16402 -0.006,-0.12121 -0.14825,-0.48711 -0.29798,-0.47537 -0.13893,-0.22896 -0.6538,-0.47858 -1.13961,-0.64789 -0.50804,-0.18478 -1.33202,-0.0591 -2.05906,0.21795 -0.17008,0.0621 -0.40549,0.31073 -0.62416,0.5934 -0.30147,0.34935 -0.57033,1.00478 -0.93704,1.86378 -0.48985,1.2618 -0.89713,3.1668 -1.86268,5.52659 -0.1801,0.44015 -0.37888,0.89325 -0.60007,1.35719 -0.74675,1.63369 -1.37564,2.88372 -1.43058,3.83132 0.0274,0.41528 -0.085,0.69069 -0.11888,0.45148 -0.15152,0.19002 0.58255,0.44769 1.57153,0.98948 1.72785,0.72809 3.80956,1.07636 5.94828,1.4377 6.09058,0.95078 11.24472,1.70481 14.87146,2.49812 3.62673,0.79332 5.72528,1.6232 5.72528,2.52356 0,0.90036 -2.09802,1.7616 -5.81159,2.42695 -3.71357,0.66534 -9.04752,1.13671 -15.49277,1.04283 -2.38779,-0.0159 -5.14176,-0.21019 -8.1937,-1.07653 -1.91695,-0.42756 -4.18585,-1.58825 -6.29606,-3.95079 -1.67753,-2.38124 -2.33974,-4.99303 -2.02533,-7.35708 0.34088,-2.88528 1.2676,-5.34151 2.31084,-7.2878 0.10675,-0.19193 0.20683,-0.40909 0.30437,-0.65029 0.5229,-1.29316 0.96963,-3.23911 1.92304,-5.5109 0.5515,-1.38914 1.39252,-2.89369 2.60084,-4.36068 1.3174,-1.56528 3.07887,-2.74231 5.11482,-3.41556 2.85086,-0.9156 5.92399,-0.70388 8.66541,0.50742 2.44345,1.0892 4.32804,3.11135 5.36868,5.60612 1.0643,2.815 0.61032,5.67874 -0.85417,7.93853 -1.25215,1.59086 -2.62495,2.62607 -3.94976,3.30248 -1.3248,0.6764 -2.60228,0.99431 -3.73756,1.11396 0,0 0,0 0,0 -1.88495,0.28303 -3.49966,0.26043 -4.86805,0.12692 -1.36839,-0.1335 -2.49173,-0.38041 -3.39044,-0.65119 -1.79741,-0.54155 -2.71786,-1.16437 -2.70642,-1.77143 z"
       id="path10805" />
     <path
       inkscape:connector-curvature="0"
       style="fill:#b110b7;fill-opacity:1;fill-rule:nonzero;stroke:none"
       d="m 459.36017,281.07163 c 0.46667,-0.14575 1.13341,0.36084 1.88921,1.50551 0.7558,1.14467 1.58916,2.93143 2.31889,5.28875 0.72972,2.35733 1.34497,5.28601 1.76747,8.62055 0.4225,3.33454 0.64648,7.07239 0.82402,10.96736 v 0 c 0.01,0.0679 0.008,0.0153 0.002,-0.1608 l 0,-1e-5 c -0.71865,0.81625 -2.3385,0.18129 -4.83081,-1.93863 -2e-5,1e-5 -4e-5,2e-5 -5e-5,3e-5 -0.36322,0.20018 -0.71462,0.33945 -1.06738,0.47186 -0.99293,0.37271 -1.93393,0.59781 -2.8126,0.67784 0.0197,-0.12549 0.0251,-0.47077 0.0943,-1.04161 0.11301,-1.33518 0.24103,-2.49964 0.17667,-3.4403 -0.12134,-3.45487 0.11027,-7.18612 0.98213,-11.03465 0.39022,-1.97412 1.05972,-4.06822 2.12805,-6.13405 0.90426,-1.74856 2.07598,-3.43618 3.54319,-4.974 1.85544,-1.88121 4.15016,-3.60329 6.85007,-4.83852 2.16769,-0.9961 4.66091,-1.45005 7.22792,-1.24235 2.45085,0.27706 4.58166,1.14748 6.30556,2.35475 1.94184,1.36649 3.39266,2.94583 4.48371,4.52006 1.45919,2.09817 2.48996,4.20175 3.24026,6.19534 0.75029,1.99359 1.43004,5.34487 1.56217,6.45048 0.13214,1.10561 0.20377,5.86192 0.26196,7.91713 0.0582,2.05521 -0.57013,9.16679 -1.77553,9.00432 -1.20841,-0.16289 -0.90781,-4.55905 -1.53859,-6.79361 -0.87103,-3.08567 -1.73583,-6.1364 -3.09442,-9.10743 v 0 c 0,0 -1.37338,-2.83834 -2.23128,-4.2821 -0.8579,-1.44375 -1.84654,-2.86888 -3.04988,-4.12472 -0.87775,-0.90587 -1.77372,-1.70514 -2.70196,-2.16408 -0.75897,-0.37189 -1.53619,-0.6219 -2.17472,-0.57931 -0.6679,-0.0378 -1.52308,0.25363 -2.43668,0.68087 -1.25538,0.59183 -2.51692,1.70322 -3.88861,3.04915 -0.64743,0.57681 -1.17417,1.39436 -1.63412,2.38725 -0.54339,1.17304 -0.98223,2.55757 -1.41319,4.00213 -0.73507,2.84128 -1.04124,5.80203 -1.16258,8.71334 -0.0644,1.85736 -0.3337,3.41983 -0.59927,4.7347 -0.0782,0.4604 -0.20238,1.14299 -0.4392,2.00678 -0.90589,0.18501 -1.87356,0.51597 -2.91187,0.98693 -0.36888,0.16732 -0.7546,0.36409 -1.1439,0.53608 -2e-5,0 -4e-5,10e-6 -6e-5,2e-5 -2.54221,-2.17387 -4.15452,-2.8943 -4.88006,-2.1511 l 0,-2e-5 c -0.0223,-0.34943 -0.0248,-0.57614 -0.0151,-0.68177 v 0 c 0.17754,-3.98927 0.48195,-7.58191 0.69715,-10.73 0.21519,-3.1481 0.34525,-5.85623 0.41402,-8.10604 0.0688,-2.24982 0.0864,-4.04513 0.20766,-5.33247 0.1213,-1.28734 0.35841,-2.06791 0.82508,-2.21366 z"
       id="path10809"
       sodipodi:nodetypes="cscscccccccccccccccccszzsacsccccccccccccccccccccccc" />
    </g>
    <g
      transform="matrix(0.10955366,0,0,0.10955366,313.84646,481.0711)"
      id="gYesCrossing">
     <path
       inkscape:connector-curvature="0"
       style="fill:#b110b7;fill-opacity:1;fill-rule:evenodd;stroke:none"
       d="m 200.26705,299.57756 c -0.0591,-0.24353 0.50005,-0.624 1.60261,-1.17764 1.10255,-0.55365 2.7438,-1.29153 4.88026,-2.26834 2.13645,-0.97681 4.76312,-2.20854 7.94181,-3.56092 3.17869,-1.35239 6.90517,-2.84221 11.41671,-3.89677 14.97693,-3.47052 35.62043,-7.49169 60.12534,-10.96255 24.5049,-3.47085 52.87181,-6.3664 83.13759,-8.0411 38.62132,-2.13704 74.37535,-2.00884 103.09503,-0.98342 9.81304,0.34818 18.83758,0.83126 26.88157,1.47887 8.04399,0.64762 15.10741,1.4557 21.02239,2.3245 1.97308,0.287 3.65925,0.77192 5.16169,1.20093 2.25779,0.63486 4.24397,1.24488 5.99764,1.75612 2.2569,0.65348 4.08752,1.15564 5.54975,1.4749 0.65989,0.11632 1.21323,0.2507 1.6792,0.34129 0.46597,0.0906 0.8457,0.14139 1.15748,0.16766 0.62355,0.0525 0.99593,0.0327 1.07925,0.19939 0.0833,0.16665 -0.1533,0.52757 -0.84912,0.86529 -0.34791,0.16886 -0.8101,0.32308 -1.3663,0.42679 -0.55619,0.10372 -1.20852,0.15334 -1.87442,0.1631 -1.61521,0.0719 -3.67479,-0.0578 -6.04681,-0.34828 -1.86634,-0.22701 -3.95132,-0.55665 -6.22261,-0.90058 -1.5658,-0.23408 -3.1546,-0.50851 -4.71517,-0.55279 -5.89842,-0.23871 -12.90622,-0.45514 -20.88176,-0.56203 -7.97555,-0.1069 -16.91967,-0.1003 -26.68405,-0.024 -28.60245,0.22928 -64.10267,0.84184 -102.43163,2.95908 -30.03667,1.65918 -58.19313,4.07528 -82.60313,6.73046 -24.41,2.65519 -45.07828,5.52608 -60.22174,7.63341 -4.07729,0.53597 -7.74471,1.58806 -10.9958,2.52059 -3.25109,0.93254 -6.08105,1.76217 -8.4152,2.32063 -2.33415,0.55847 -4.16874,0.86211 -5.42596,0.95925 -1.25721,0.0971 -1.93553,-2.9e-4 -1.99462,-0.24382 z"
       id="path10857" />
     <path
       inkscape:connector-curvature="0"
       style="fill:#b110b7;fill-opacity:1;fill-rule:evenodd;stroke:none"
       d="m 207.94852,261.71885 c -0.10133,-0.23663 0.37608,-0.72459 1.42521,-1.40455 1.04914,-0.67995 2.67264,-1.54693 4.86305,-2.48834 2.19042,-0.94141 4.95066,-1.9505 8.23056,-2.95082 3.27989,-1.00032 7.08201,-1.98493 11.27197,-3.01759 11.96977,-2.96898 27.64514,-6.15337 46.04474,-8.78788 18.3996,-2.63452 39.52296,-4.7022 62.21679,-5.93274 8.31903,-0.45249 16.85556,-0.79569 25.55493,-1.01082 15.31751,-0.3788 30.15198,-0.33332 44.20196,0.0537 14.04999,0.38699 27.31527,1.1147 39.50614,2.05965 10e-6,0 10e-6,0 10e-6,0 7.52984,0.5832 14.69934,1.13277 21.40333,1.7878 6.70398,0.65504 12.94225,1.41442 18.62391,2.30241 5.9127,0.90331 11.33274,1.89443 16.00247,3.05134 4.66972,1.15691 8.59422,2.46753 11.69279,3.75501 3.09858,1.28748 5.37763,2.53883 6.84603,3.51334 1.4684,0.97452 2.13218,1.66178 1.99471,1.93672 -0.13747,0.27494 -1.06755,0.12733 -2.72788,-0.29774 -1.66033,-0.42507 -4.05501,-1.11622 -7.18257,-1.83866 -3.12757,-0.72245 -6.99404,-1.46302 -11.58089,-2.08519 -4.58686,-0.62217 -9.90023,-1.11439 -15.81176,-1.62646 -5.60252,-0.46276 -11.75163,-0.82533 -18.39698,-1.12029 -6.64535,-0.29496 -13.78736,-0.52127 -21.36618,-0.82682 -10e-6,0 -10e-6,0 -10e-6,0 -12.11081,-0.48456 -25.26464,-0.84869 -39.18432,-0.98838 -13.91968,-0.13969 -28.60511,-0.0542 -43.77355,0.32086 -8.61469,0.21301 -17.06984,0.51076 -25.31398,0.87794 -22.49843,1.00591 -43.4094,2.53614 -61.68047,4.40696 -18.27108,1.87082 -33.90742,4.06723 -45.97782,5.90628 -4.27339,0.66002 -8.07997,1.21421 -11.37163,1.76427 -3.29166,0.55006 -6.07121,1.08913 -8.32849,1.56067 -2.25728,0.47153 -3.99472,0.8686 -5.20024,1.08107 -1.20552,0.21248 -1.8805,0.23492 -1.98183,-0.002 z"
       id="path10865" />
    </g>
   </g>
  </g>
 </g>
</svg>
